<?xml version="1.0" encoding="utf-8"?>
<!-- Generator: Avocode 2.6.0 - http://avocode.com -->
<svg height="21" width="23" xmlns:xlink="http://www.w3.org/1999/xlink" xmlns="http://www.w3.org/2000/svg" viewBox="0 0 23 21">
    <path fill="#000000" fill-rule="evenodd" d="M 12.22 10.06 L 6.47 10.06 C 6.07 10.06 5.75 9.74 5.75 9.34 C 5.75 8.95 6.07 8.62 6.47 8.62 L 12.22 8.62 C 12.62 8.62 12.94 8.95 12.94 9.34 C 12.94 9.74 12.62 10.06 12.22 10.06 L 12.22 10.06 L 12.22 10.06 Z M 15.81 9.34 C 15.81 9.74 15.49 10.06 15.09 10.06 C 14.7 10.06 14.37 9.74 14.37 9.34 C 14.37 8.95 14.7 8.62 15.09 8.62 C 15.49 8.62 15.81 8.95 15.81 9.34 L 15.81 9.34 L 15.81 9.34 Z M 8.62 6.47 C 8.62 6.07 8.95 5.75 9.34 5.75 L 16.53 5.75 C 16.93 5.75 17.25 6.07 17.25 6.47 C 17.25 6.87 16.93 7.19 16.53 7.19 L 9.34 7.19 C 8.95 7.19 8.62 6.87 8.62 6.47 L 8.62 6.47 L 8.62 6.47 Z M 20.12 15.81 L 13.66 15.81 C 13.17 15.81 12.72 15.97 12.36 16.24 L 7.83 19.64 C 7.82 19.65 7.81 19.65 7.8 19.66 C 7.43 19.95 6.97 20.12 6.47 20.12 C 5.28 20.13 4.31 19.16 4.31 17.97 L 4.31 16.53 C 4.31 16.13 3.99 15.81 3.59 15.81 L 2.87 15.81 C 1.29 15.81 0 14.52 0 12.94 L 0 3.59 C 0 3.2 0.32 2.87 0.72 2.87 C 1.12 2.87 1.44 3.2 1.44 3.59 L 1.44 12.58 C 1.44 13.57 2.24 14.38 3.23 14.38 L 3.95 14.38 C 4.95 14.38 5.75 15.18 5.75 16.17 L 5.75 17.97 C 5.75 18.37 6.07 18.69 6.47 18.69 C 6.62 18.69 6.76 18.64 6.88 18.56 C 6.88 18.56 6.88 18.56 6.88 18.56 L 11.46 15.13 C 11.46 15.13 11.46 15.13 11.46 15.13 C 12.06 14.66 12.83 14.38 13.66 14.38 L 19.77 14.38 C 20.76 14.38 21.56 13.57 21.56 12.58 L 21.56 3.23 C 21.56 2.24 20.76 1.44 19.77 1.44 L 6.47 1.44 C 6.07 1.44 5.75 1.12 5.75 0.72 C 5.75 0.32 6.07 0 6.47 0 L 20.12 0 C 21.71 0 23 1.29 23 2.87 L 23 12.94 C 23 14.52 21.71 15.81 20.12 15.81 L 20.12 15.81 L 20.12 15.81 Z M 3.59 1.44 C 3.2 1.44 2.87 1.12 2.87 0.72 C 2.87 0.32 3.2 0 3.59 0 C 3.99 0 4.31 0.32 4.31 0.72 C 4.31 1.12 3.99 1.44 3.59 1.44 L 3.59 1.44 L 3.59 1.44 Z M 3.59 1.44" />
</svg>