<?xml version="1.0" encoding="UTF-8" standalone="no"?>
<svg width="17px" height="20px" viewBox="0 0 17 20" version="1.1" xmlns="http://www.w3.org/2000/svg" xmlns:xlink="http://www.w3.org/1999/xlink">
    <!-- Generator: Sketch 3.8.3 (29802) - http://www.bohemiancoding.com/sketch -->
    <title>Group</title>
    <desc>Created with Sketch.</desc>
    <defs></defs>
    <g id="Page-1" stroke="none" stroke-width="1" fill="none" fill-rule="evenodd">
        <g id="Teacher-page-course" transform="translate(-508.000000, -830.000000)" fill="#000000">
            <g id="Calendar" transform="translate(339.000000, 354.000000)">
                <g id="3" transform="translate(1.000000, 422.000000)">
                    <g id="Group" transform="translate(168.000000, 54.000000)">
                        <path d="M15.1219512,18.0487805 L1.46341463,18.0487805 C0.924878049,18.0487805 0.487804878,18.4858537 0.487804878,19.0243902 C0.487804878,19.5629268 0.924878049,20 1.46341463,20 L15.1219512,20 C15.6604878,20 16.097561,19.5629268 16.097561,19.0243902 C16.097561,18.4858537 15.6604878,18.0487805 15.1219512,18.0487805 L15.1219512,18.0487805 Z" id="Shape"></path>
                        <path d="M2.77853659,16.1926829 C4.02682927,16.1926829 6.26829268,15.7980488 7.11512195,14.9517073 L15.3936585,6.67317073 C16.535122,5.53219512 16.535122,3.67512195 15.3936585,2.53414634 L14.0136585,1.15463415 C13.462439,0.603414634 12.7273171,0.3 11.9443902,0.3 C11.1614634,0.3 10.4263415,0.603414634 9.87512195,1.15463415 L7.83902439,3.1902439 C7.82878049,3.2 7.81609756,3.20731707 7.80634146,3.21707317 C7.79609756,3.22731707 7.78926829,3.23902439 7.78,3.24926829 L1.59609756,9.43317073 C0.839512195,10.1897561 0.518536585,11.9068293 0.43804878,12.415122 C0.187804878,13.9956098 0.345365854,15.0814634 0.905853659,15.6414634 C1.28243902,16.0180488 1.87707317,16.1926829 2.77853659,16.1926829 L2.77853659,16.1926829 Z M11.2541463,2.53414634 C11.62,2.16878049 12.2678049,2.16829268 12.6336585,2.53414634 L14.0136585,3.91365854 C14.3936585,4.29414634 14.3936585,4.91317073 14.0136585,5.29365854 L12.6463415,6.66097561 C11.3136585,5.29073171 10.4702439,4.42731707 9.90926829,3.87902439 L11.2541463,2.53414634 L11.2541463,2.53414634 Z M2.97609756,10.8126829 L8.5195122,5.26926829 C9.19073171,5.93317073 10.2892683,7.04780488 11.2634146,8.04487805 L5.73756098,13.5697561 C5.45219512,13.8287805 3.98146341,14.2414634 2.77853659,14.2414634 C2.55170732,14.2414634 2.4004878,14.2258537 2.30585366,14.2097561 C2.13804878,13.4614634 2.55073171,11.2668293 2.97609756,10.8126829 L2.97609756,10.8126829 Z" id="Shape"></path>
                    </g>
                </g>
            </g>
        </g>
    </g>
</svg>