<?xml version="1.0" encoding="UTF-8" standalone="no"?>
<svg width="14px" height="16px" viewBox="0 0 14 16" version="1.1" xmlns="http://www.w3.org/2000/svg" xmlns:xlink="http://www.w3.org/1999/xlink">
    <!-- Generator: Sketch 3.8.3 (29802) - http://www.bohemiancoding.com/sketch -->
    <title>calendar ico</title>
    <desc>Created with Sketch.</desc>
    <defs></defs>
    <g id="Page-1" stroke="none" stroke-width="1" fill="none" fill-rule="evenodd">
        <g id="POP-UP-Add-home-work-solo" transform="translate(-600.000000, -216.000000)" fill="#9E9E9E">
            <g id="Дата" transform="translate(599.000000, 177.000000)">
                <g id="calendar-ico" transform="translate(1.000000, 39.000000)">
                    <path d="M13.3597778,2.09 L11.4077778,2.09 L11.4077778,0.813111111 C11.4077778,0.459777778 11.1211111,0.172888889 10.7675556,0.172888889 C10.414,0.172888889 10.1273333,0.459555556 10.1273333,0.813111111 L10.1273333,2.09 L3.96244444,2.09 L3.96244444,0.813111111 C3.96244444,0.459777778 3.67577778,0.172888889 3.32222222,0.172888889 C2.96866667,0.172888889 2.682,0.459555556 2.682,0.813111111 L2.682,2.09 L0.73,2.09 C0.376666667,2.09 0.0897777778,2.37666667 0.0897777778,2.73022222 L0.0897777778,15.36 C0.0897777778,15.7133333 0.376444444,16.0002222 0.73,16.0002222 L13.3597778,16.0002222 C13.7133333,16 14,15.7133333 14,15.3597778 L14,2.73022222 C14,2.37688889 13.7133333,2.09 13.3597778,2.09 L13.3597778,2.09 Z M12.7197778,14.7197778 L1.37022222,14.7197778 L1.37022222,3.37022222 L2.68222222,3.37022222 L2.68222222,4.19088889 C2.68222222,4.54422222 2.96888889,4.83111111 3.32244444,4.83111111 C3.676,4.83111111 3.96266667,4.54444444 3.96266667,4.19088889 L3.96266667,3.37022222 L10.1277778,3.37022222 L10.1277778,4.19088889 C10.1277778,4.54422222 10.4144444,4.83111111 10.768,4.83111111 C11.1215556,4.83111111 11.4082222,4.54444444 11.4082222,4.19088889 L11.4082222,3.37022222 L12.7202222,3.37022222 L12.7202222,14.7197778 L12.7197778,14.7197778 Z" id="Shape"></path>
                    <ellipse id="Oval" cx="3.32244444" cy="7.654" rx="0.589111111" ry="0.589111111"></ellipse>
                    <ellipse id="Oval" cx="5.804" cy="7.654" rx="0.589111111" ry="0.589111111"></ellipse>
                    <ellipse id="Oval" cx="8.286" cy="7.654" rx="0.589111111" ry="0.589111111"></ellipse>
                    <ellipse id="Oval" cx="10.7677778" cy="7.654" rx="0.589111111" ry="0.589111111"></ellipse>
                    <ellipse id="Oval" cx="3.32244444" cy="9.81733333" rx="0.589111111" ry="0.589111111"></ellipse>
                    <ellipse id="Oval" cx="5.804" cy="9.81733333" rx="0.589111111" ry="0.589111111"></ellipse>
                    <ellipse id="Oval" cx="8.286" cy="9.81733333" rx="0.589111111" ry="0.589111111"></ellipse>
                    <ellipse id="Oval" cx="10.7677778" cy="9.81733333" rx="0.589111111" ry="0.589111111"></ellipse>
                    <ellipse id="Oval" cx="3.32244444" cy="11.9806667" rx="0.589111111" ry="0.589111111"></ellipse>
                    <ellipse id="Oval" cx="5.804" cy="11.9806667" rx="0.589111111" ry="0.589111111"></ellipse>
                    <ellipse id="Oval" cx="8.286" cy="11.9806667" rx="0.589111111" ry="0.589111111"></ellipse>
                    <ellipse id="Oval" cx="10.7677778" cy="11.9806667" rx="0.589111111" ry="0.589111111"></ellipse>
                </g>
            </g>
        </g>
    </g>
</svg>