<?xml version="1.0" encoding="UTF-8" standalone="no"?>
<svg width="59px" height="59px" viewBox="0 0 59 59" version="1.1" xmlns="http://www.w3.org/2000/svg" xmlns:xlink="http://www.w3.org/1999/xlink">
    <!-- Generator: Sketch 3.8.1 (29687) - http://www.bohemiancoding.com/sketch -->
    <title>like</title>
    <desc>Created with Sketch.</desc>
    <defs>
        <rect id="path-1" x="0" y="0" width="59" height="59"></rect>
        <mask id="mask-2" maskContentUnits="userSpaceOnUse" maskUnits="objectBoundingBox" x="0" y="0" width="59" height="59" fill="white">
            <use xlink:href="#path-1"></use>
        </mask>
    </defs>
    <g id="Page-1" stroke="none" stroke-width="1" fill="none" fill-rule="evenodd">
        <g id="Blog" transform="translate(-801.000000, -2039.000000)">
            <g id="likes" transform="translate(261.000000, 179.000000)">
                <g id="like" transform="translate(540.000000, 1860.000000)">
                    <use id="Rectangle-2495" stroke="#FFD500" mask="url(#mask-2)" stroke-width="6" xlink:href="#path-1"></use>
                    <path d="M30,38.3316727 L29.5471429,38.0437136 C29.157551,37.7955503 20,31.9069789 20,26.4494278 C20,22.9753462 21.6006122,20.5982034 24.2818367,20.0912646 C26.8363265,19.6084074 29.5614286,21.0867748 30.4908163,23.4561625 C30.6608163,23.8896319 30.4473469,24.3792238 30.0134694,24.5492238 C29.5785714,24.7194278 29.0904082,24.5057544 28.9204082,24.0718768 C28.2771429,22.4318768 26.3753061,21.4114687 24.5953061,21.7484074 C22.7467347,22.0979993 21.6865306,23.8114687 21.6865306,26.4494278 C21.6865306,29.9986115 27.3138776,34.5179993 30,36.3239176 C32.6861224,34.5179993 38.3134694,29.9988156 38.3134694,26.4494278 C38.3134694,24.3039176 37.6040816,22.7467748 36.3165306,22.064938 C35.1628571,21.4543258 33.6418367,21.5863666 32.4416327,22.402285 C32.0567347,22.664734 31.5318367,22.5643258 31.27,22.1790197 C31.0081633,21.7937136 31.1081633,21.2692238 31.4932653,21.007387 C33.2042857,19.844938 35.4073469,19.674734 37.1057143,20.5745299 C38.1867347,21.1467748 40,22.6710605 40,26.4494278 C40,31.9069789 30.842449,37.7955503 30.4528571,38.0435095 L30,38.3316727 L30,38.3316727 Z" id="Shape" fill="#000000"></path>
                </g>
            </g>
        </g>
    </g>
</svg>