<?xml version="1.0" encoding="UTF-8" standalone="no"?>
<svg width="29px" height="28px" viewBox="0 0 29 28" version="1.1" xmlns="http://www.w3.org/2000/svg" xmlns:xlink="http://www.w3.org/1999/xlink">
    <!-- Generator: Sketch 3.8.1 (29687) - http://www.bohemiancoding.com/sketch -->
    <title>login</title>
    <desc>Created with Sketch.</desc>
    <defs>
        <polygon id="path-1" points="7.29644984 5.48302902 9.79081603 4.73845297 9.79081603 7.89742162 6.52721069 7.89742162"></polygon>
        <mask id="mask-2" maskContentUnits="userSpaceOnUse" maskUnits="objectBoundingBox" x="0" y="0" width="3.26360534" height="3.15896865" fill="white">
            <use xlink:href="#path-1"></use>
        </mask>
        <path d="M4.98825364,0.0128658719 C4.98825364,0.0128658719 2.54054961,2.8629639 2.67280472,3.20128974 C3.63978665,5.67495583 5.99336227,6.33080316 7.91579032,6.33080316 C9.48868601,6.33080316 10.7994324,5.8233145 12.8092436,2.86296396 C13.6772457,1.62481491 9.47571094,0.0128658707 9.47571094,0.0128658707 C9.47571094,0.0128658707 9.10763603,-0.0160823387 9.06775993,0.0128658712 C8.0197676,0.773659823 7.43595764,1.59235012 7.43595764,1.59235012 L4.98825364,0.0128658719 Z" id="path-3"></path>
        <mask id="mask-4" maskContentUnits="userSpaceOnUse" maskUnits="objectBoundingBox" x="0" y="0" width="10.2597071" height="6.33080316" fill="white">
            <use xlink:href="#path-3"></use>
        </mask>
    </defs>
    <g id="Page-1" stroke="none" stroke-width="1" fill="none" fill-rule="evenodd">
        <g id="Index" transform="translate(-1350.000000, -70.000000)">
            <g id="Head-menu" transform="translate(47.000000, 37.000000)">
                <g id="login" transform="translate(1303.000000, 33.000000)">
                    <g id="3" transform="translate(5.779301, 0.000000)">
                        <g id="noun_184601_cc-copy" transform="translate(0.000000, 3.158969)">
                            <g id="Group">
                                <path d="M1.08786845,11.8410311 L3.22069883,9.84103107 L5.22069907,11.8410311 L7.22069907,9.84103107 L10.2206991,12.8410311 L13.2206991,9.84103107 L15.2301586,11.8410311 C15.2301586,11.8410311 15.2301583,7.78648054 15.2301583,6.84443207 C15.2301583,3.06435662 12.0642989,0 8.15901336,0 C4.25372786,0 1.08786845,3.06435662 1.08786845,6.84443207 L1.08786845,11.8410311 Z" id="Oval-57" stroke="#63360A" fill="#FFE400"></path>
                                <ellipse id="Oval-58" fill="#000000" cx="12.23852" cy="6.05468991" rx="0.815901336" ry="0.789742162"></ellipse>
                                <ellipse id="Oval-58-Copy" fill="#000000" cx="4.07950668" cy="6.05468991" rx="0.815901336" ry="0.789742162"></ellipse>
                                <use id="Rectangle-389" stroke="#A5421D" mask="url(#mask-2)" stroke-width="2" transform="translate(8.159013, 6.317937) rotate(-315.000000) translate(-8.159013, -6.317937) " xlink:href="#path-1"></use>
                                <path d="M16.4283377,13.0384882 C16.4889594,12.6079573 13.2156647,9.47690594 13.2156647,9.47690594 L10.4621128,13.0384881 L7.70856063,10.0034007 L4.95500945,11.582885 L2.75216785,9.47690594 C2.75216785,9.47690594 -0.11678631,12.7310979 0.125690391,13.890171 C1.28380195,18.8299308 6.04728175,20.5332962 8.96612936,20.5332962 C11.884977,20.5332962 15.8938247,17.2969019 16.4283377,13.0384882 Z" id="Combined-Shape" stroke="#9E9E9E" stroke-width="2"></path>
                            </g>
                        </g>
                        <use id="Shape" stroke="#9E9E9E" mask="url(#mask-4)" stroke-width="3" fill="#FFFFFF" transform="translate(7.797485, 3.165402) rotate(-180.000000) translate(-7.797485, -3.165402) " xlink:href="#path-3"></use>
                    </g>
                    <path d="M0.495368668,26.2577414 C0.495368668,26.2577414 8.94966061,24.2119331 9.01570976,24.2119331 C9.21385723,24.1480016 10.6008895,25.936258 14.2996422,25.8741523 C17.9983949,25.8120467 18.857034,24.4676592 18.857034,24.4676592 C18.9230831,24.4037276 18.9230831,24.3397961 18.9891323,24.3397961 C19.1212306,24.2119331 26.1224411,25.8102208 27.9718175,26.3216729" id="Shape-Copy-5" stroke="#9E9E9E" stroke-width="2"></path>
                </g>
            </g>
        </g>
    </g>
</svg>