<?xml version="1.0" encoding="UTF-8" standalone="no"?>
<svg
   xmlns:dc="http://purl.org/dc/elements/1.1/"
   xmlns:cc="http://creativecommons.org/ns#"
   xmlns:rdf="http://www.w3.org/1999/02/22-rdf-syntax-ns#"
   xmlns:svg="http://www.w3.org/2000/svg"
   xmlns="http://www.w3.org/2000/svg"
   xmlns:sodipodi="http://sodipodi.sourceforge.net/DTD/sodipodi-0.dtd"
   xmlns:inkscape="http://www.inkscape.org/namespaces/inkscape"
   width="100px"
   height="13px"
   viewBox="0 0 100 13"
   version="1.1"
   id="svg2"
   inkscape:version="0.91 r13725"
   sodipodi:docname="make-in-meat.svg">
  <metadata
     id="metadata16">
    <rdf:RDF>
      <cc:Work
         rdf:about="">
        <dc:format>image/svg+xml</dc:format>
        <dc:type
           rdf:resource="http://purl.org/dc/dcmitype/StillImage" />
      </cc:Work>
    </rdf:RDF>
  </metadata>
  <sodipodi:namedview
     pagecolor="#ffffff"
     bordercolor="#666666"
     borderopacity="1"
     objecttolerance="10"
     gridtolerance="10"
     guidetolerance="10"
     inkscape:pageopacity="0"
     inkscape:pageshadow="2"
     inkscape:window-width="1920"
     inkscape:window-height="1017"
     id="namedview14"
     showgrid="false"
     inkscape:zoom="3.18"
     inkscape:cx="-33.962264"
     inkscape:cy="6.5"
     inkscape:window-x="-8"
     inkscape:window-y="-8"
     inkscape:window-maximized="1"
     inkscape:current-layer="svg2" />
  <!-- Generator: Sketch 3.7 (28169) - http://www.bohemiancoding.com/sketch -->
  <title
     id="title4">make in MEAT</title>
  <desc
     id="desc6">Created with Sketch.</desc>
  <defs
     id="defs8" />
  <g
     id="Page-1"
     stroke="none"
     stroke-width="1"
     fill="none"
     fill-rule="evenodd">
    <g
       id="objects-1440"
       transform="translate(-1300,-8457)"
       style="fill:#000000">
      <g
         id="footer"
         transform="translate(0,8221)">
        <path
           d="m 1300.305,248 1.008,0 0,-3.164 c 0,-0.7 0.126,-1.89 1.274,-1.89 1.064,0 1.05,1.204 1.05,1.61 l 0,3.444 1.008,0 0,-3.234 c 0,-0.7 0.126,-1.82 1.288,-1.82 0.952,0 1.036,0.868 1.036,1.526 l 0,3.528 1.008,0 0,-3.682 c 0,-0.826 -0.168,-2.268 -1.89,-2.268 -0.392,0 -1.19,0.056 -1.75,0.938 -0.112,-0.196 -0.532,-0.938 -1.582,-0.938 -0.616,0 -1.12,0.28 -1.442,0.756 l 0,-0.616 -1.008,0 0,5.81 z m 14.642,-4.984 c -0.266,-0.35 -0.868,-0.966 -1.988,-0.966 -1.484,0 -2.828,1.036 -2.828,3.038 0,2.044 1.358,3.08 2.828,3.08 1.022,0 1.652,-0.546 1.988,-0.98 l 0,0.812 1.008,0 0,-5.81 -1.008,0 0,0.826 z m -1.876,-0.07 c 0.896,0 1.932,0.658 1.932,2.156 0,1.148 -0.7,2.17 -1.932,2.17 -1.204,0 -1.904,-0.938 -1.904,-2.184 0,-1.414 0.91,-2.142 1.904,-2.142 l 0,0 z m 5.388,-5.152 0,10.206 1.008,0 0,-2.394 0.252,-0.252 2.324,2.646 1.316,0 -2.94,-3.318 2.492,-2.492 -1.316,0 -2.128,2.156 0,-6.552 -1.008,0 z m 10.82,8.26 c -0.126,0.28 -0.336,0.574 -0.602,0.798 -0.336,0.28 -0.714,0.42 -1.19,0.42 -1.008,0 -1.834,-0.77 -1.848,-1.974 l 4.522,0 c 0.028,-0.77 -0.182,-1.666 -0.546,-2.184 -0.35,-0.504 -1.064,-1.064 -2.198,-1.064 -1.75,0 -2.814,1.344 -2.814,3.08 0,2.156 1.47,3.038 2.87,3.038 0.742,0 1.4,-0.238 1.932,-0.714 0.294,-0.266 0.546,-0.616 0.714,-0.938 l -0.84,-0.462 z m -3.57,-1.596 c 0.154,-0.868 0.854,-1.512 1.708,-1.512 0.854,0 1.54,0.602 1.708,1.512 l -3.416,0 z m 10.454,-2.268 0,5.81 1.008,0 0,-5.81 -1.008,0 z m -0.21,-2.198 c 0,0.392 0.322,0.714 0.714,0.714 0.392,0 0.714,-0.322 0.714,-0.714 0,-0.392 -0.322,-0.714 -0.714,-0.714 -0.392,0 -0.714,0.322 -0.714,0.714 l 0,0 z m 3.722,8.008 1.008,0 0,-3.038 c 0,-0.42 0.028,-1.106 0.42,-1.568 0.294,-0.35 0.672,-0.448 1.022,-0.448 0.448,0 0.756,0.168 0.952,0.42 0.238,0.308 0.266,0.714 0.266,1.064 l 0,3.57 1.008,0 0,-3.598 c 0,-0.644 -0.042,-1.12 -0.336,-1.554 -0.35,-0.518 -0.98,-0.798 -1.666,-0.798 -0.966,0 -1.484,0.574 -1.666,0.812 l 0,-0.672 -1.008,0 0,5.81 z m 11.9,0 2.416,0 0,-7.264 3.12,4.736 0.064,0 3.152,-4.784 0,7.312 2.448,0 0,-11.2 -2.656,0 -2.944,4.736 -2.944,-4.736 -2.656,0 0,11.2 z m 14.488,0 8.528,0 0,-2.192 -6.08,0 0,-2.352 5.28,0 0,-2.192 -5.28,0 0,-2.272 6,0 0,-2.192 -8.448,0 0,11.2 z m 10.36,0 2.512,0 1.024,-2.512 4.736,0 1.024,2.512 2.576,0 -4.8,-11.28 -2.272,0 -4.8,11.28 z m 4.416,-4.688 1.488,-3.632 1.488,3.632 -2.976,0 z m 12.392,4.688 2.464,0 0,-8.928 3.408,0 0,-2.272 -9.28,0 0,2.272 3.408,0 0,8.928 z"
           id="make-in-MEAT"
           inkscape:connector-curvature="0" />
      </g>
    </g>
  </g>
</svg>
