<?xml version="1.0" encoding="UTF-8" standalone="no"?>
<svg width="106px" height="100px" viewBox="0 0 106 100" version="1.1" xmlns="http://www.w3.org/2000/svg" xmlns:xlink="http://www.w3.org/1999/xlink">
    <!-- Generator: Sketch 3.8.1 (29687) - http://www.bohemiancoding.com/sketch -->
    <title>logo</title>
    <desc>Created with Sketch.</desc>
    <defs></defs>
    <g id="Page-1" stroke="none" stroke-width="1" fill="none" fill-rule="evenodd">
        <g id="Index" transform="translate(-47.000000, -37.000000)">
            <g id="Head-menu" transform="translate(47.000000, 37.000000)">
                <g id="logo">
                    <g id="Path-9923-+-Group">
                        <g id="Group-3" transform="translate(0.471590, 0.073166)">
                            <path d="M0.514506038,53.2897894 C-2.11092594,43.1405736 5.0293229,22.168537 28.4590484,5.34829732 C51.8887738,-11.4719424 105.304606,14.0170182 105.304601,45.1675147 C105.304596,76.3180112 80.7361761,80.2448135 60.0727114,78.5037895 C36.3753809,76.5071436 31.8568927,77.3784558 21.5546436,72.4359343 C10.9212499,67.3345457 5.46729237,72.4359326 0.514506038,53.2897894 Z" id="Shape" fill="#FFD500"></path>
                            <path d="M59.5794225,17.7705381 C59.6335808,17.7775318 59.7894071,17.8011449 60.0315003,17.8440275 C60.4648929,17.9207954 60.9553583,18.0221595 61.4871696,18.1503945 C63.0027131,18.5158355 64.5137045,19.0155553 65.8894915,19.6554543 C67.3915704,20.3540934 68.6219397,21.1718383 69.5040899,22.0828104 C71.0290033,23.6575465 73.5992132,23.7511701 75.2448144,22.2919246 C76.8904155,20.8326791 76.9882523,18.3731511 75.4633389,16.7984151 C73.8302512,15.1119704 71.7879911,13.7546156 69.4410722,12.6630287 C67.5169733,11.7681018 65.4923726,11.0985195 63.472324,10.6114279 C62.2526703,10.3173344 61.2801452,10.1450685 60.6659483,10.0657538 C58.4425854,9.77863856 56.3969666,11.2706603 56.0969307,13.3982778 C55.7968949,15.5258952 57.3560596,17.4834228 59.5794225,17.7705381 L59.5794225,17.7705381 Z" id="Shape" fill="#FFFFFF"></path>
                            <ellipse id="Oval-109" fill="#FFFFFF" cx="82.6799948" cy="27.1170992" rx="4.06224512" ry="3.88731116"></ellipse>
                        </g>
                        <path d="M23.0828994,99.9779482 L47.6360897,99.9779482 L47.6360897,93.7658544 L23.0828994,93.7658544 L23.0828994,99.9779482 Z M25.5826921,30.3386425 L21.9922474,36.8051842 L18.4012509,30.3386425 L12.8867427,30.3386425 L12.8867427,51.3070927 L18.2726857,51.3070927 L18.2726857,39.9439149 L20.6453478,44.4645516 L23.3385952,44.4645516 L25.7112572,39.9439149 L25.7112572,51.3070927 L31.257217,51.3070927 L31.257217,30.3386425 L25.5826921,30.3386425 Z M42.2899302,30.3386425 L42.2899302,51.3070927 L56.5568026,51.3070927 L56.5568026,46.4417899 L47.8364417,46.4417899 L47.8364417,42.9259793 L55.0824414,42.9259793 L55.0824414,38.0606765 L47.8364417,38.0606765 L47.8364417,35.2039453 L56.5446634,35.2039453 L56.5446634,30.3386425 L42.2899302,30.3386425 Z M18.2269981,62.2123723 L12.9905881,83.1808226 L18.5216497,83.1808226 L19.4707145,79.1312656 L24.4444764,79.1312656 L25.3935412,83.1808226 L31.1524888,83.1808226 L25.9171822,62.2123723 L18.2269981,62.2123723 Z M21.9244885,68.5530407 L23.4628564,74.9877088 L20.4192276,74.9877088 L21.9244885,68.5530407 Z M42.2427528,62.2571033 L42.2427528,67.1224061 L46.6283152,67.1224061 L46.6283152,83.2255535 L52.1748267,83.2255535 L52.1748267,67.1224061 L56.5609409,67.1224061 L56.5609409,62.2571033 L42.2427528,62.2571033 Z" id="Fill-1" fill="#010101"></path>
                    </g>
                </g>
            </g>
        </g>
    </g>
</svg>