<?xml version="1.0" encoding="UTF-8" standalone="no"?>
<svg width="12px" height="7px" viewBox="0 0 12 7" version="1.1" xmlns="http://www.w3.org/2000/svg" xmlns:xlink="http://www.w3.org/1999/xlink">
    <!-- Generator: Sketch 3.8.2 (29753) - http://www.bohemiancoding.com/sketch -->
    <title></title>
    <desc>Created with Sketch.</desc>
    <defs></defs>
    <g id="Page-1" stroke="none" stroke-width="1" fill="none" fill-rule="evenodd">
        <g id="Blog" transform="translate(-810.000000, -3746.000000)" fill="#333333">
            <g id="Читать-больше-Button" transform="translate(599.000000, 3725.000000)">
                <g id="Group-4" transform="translate(39.000000, 15.000000)">
                    <path d="M183.997782,7.07141793 C183.997782,6.98213211 183.953139,6.88168556 183.886175,6.81472119 L183.328139,6.25668481 C183.261174,6.18972045 183.160728,6.14507754 183.071442,6.14507754 C182.982156,6.14507754 182.881709,6.18972045 182.814745,6.25668481 L178.428579,10.6428508 L174.042413,6.25668481 C173.975449,6.18972045 173.875002,6.14507754 173.785716,6.14507754 C173.68527,6.14507754 173.595984,6.18972045 173.52902,6.25668481 L172.970983,6.81472119 C172.904019,6.88168556 172.859376,6.98213211 172.859376,7.07141793 C172.859376,7.16070375 172.904019,7.2611503 172.970983,7.32811466 L178.171882,12.5290137 C178.238847,12.5959781 178.339293,12.640621 178.428579,12.640621 C178.517865,12.640621 178.618311,12.5959781 178.685276,12.5290137 L183.886175,7.32811466 C183.953139,7.2611503 183.997782,7.16070375 183.997782,7.07141793 L183.997782,7.07141793 Z" id=""></path>
                </g>
            </g>
        </g>
    </g>
</svg>