<?xml version="1.0" encoding="UTF-8" standalone="no"?>
<svg width="6px" height="11px" viewBox="0 0 6 11" version="1.1" xmlns="http://www.w3.org/2000/svg" xmlns:xlink="http://www.w3.org/1999/xlink">
    <!-- Generator: Sketch 3.8.2 (29753) - http://www.bohemiancoding.com/sketch -->
    <title></title>
    <desc>Created with Sketch.</desc>
    <defs></defs>
    <g id="Page-1" stroke="none" stroke-width="1" fill="none" fill-rule="evenodd">
        <g id="Index" transform="translate(-533.000000, -1547.000000)" fill="#9E9E9E">
            <path d="M538.97657,1552.21428 C538.97657,1552.13392 538.936391,1552.04352 538.876123,1551.98325 L534.195314,1547.30244 C534.135046,1547.24217 534.044644,1547.202 533.964287,1547.202 C533.88393,1547.202 533.793528,1547.24217 533.73326,1547.30244 L533.231027,1547.80468 C533.170759,1547.86494 533.130581,1547.95535 533.130581,1548.0357 C533.130581,1548.11606 533.170759,1548.20646 533.231027,1548.26673 L537.178576,1552.21428 L533.231027,1556.16183 C533.170759,1556.2221 533.130581,1556.3125 533.130581,1556.39286 C533.130581,1556.48326 533.170759,1556.56361 533.231027,1556.62388 L533.73326,1557.12612 C533.793528,1557.18638 533.88393,1557.22656 533.964287,1557.22656 C534.044644,1557.22656 534.135046,1557.18638 534.195314,1557.12612 L538.876123,1552.44531 C538.936391,1552.38504 538.97657,1552.29464 538.97657,1552.21428 L538.97657,1552.21428 Z" id=""></path>
        </g>
    </g>
</svg>