<?xml version="1.0" encoding="utf-8"?>
<!-- Generator: Avocode 2.6.0 - http://avocode.com -->
<svg height="20" width="17" xmlns:xlink="http://www.w3.org/1999/xlink" xmlns="http://www.w3.org/2000/svg" viewBox="0 0 17 20">
    <path stroke-linejoin="miter" stroke-linecap="butt" stroke-width="1.5" stroke="#000000" fill="none" fill-rule="evenodd" d="M 8.21 17.66 C 7.96 17.5 2.14 13.43 2.14 8.38 C 2.14 4.85 4.99 2 8.5 2 C 12.01 2 14.86 4.85 14.86 8.36 C 14.86 10.48 13.8 12.77 11.8 14.96 C 10.32 16.59 8.85 17.6 8.79 17.64 C 8.71 17.7 8.6 17.74 8.5 17.74 C 8.4 17.74 8.29 17.72 8.21 17.66 Z M 8.21 17.66" />
    <path fill="#000000" fill-rule="evenodd" d="M 8.5 11.18 C 6.81 11.18 5.43 9.8 5.43 8.11 C 5.43 6.42 6.81 5.05 8.5 5.05 C 10.19 5.05 11.57 6.44 11.57 8.13 C 11.57 9.82 10.19 11.18 8.5 11.18 L 8.5 11.18 Z M 8.5 6.09 C 7.37 6.09 6.46 6.99 6.46 8.13 C 6.46 9.26 7.37 10.17 8.5 10.17 C 9.63 10.17 10.54 9.26 10.54 8.13 C 10.54 6.99 9.63 6.09 8.5 6.09 L 8.5 6.09 Z M 8.5 6.09" />
</svg>