<?xml version="1.0" encoding="utf-8"?>
<!-- Generator: Avocode 2.6.0 - http://avocode.com -->
<svg height="18" width="17" xmlns:xlink="http://www.w3.org/1999/xlink" xmlns="http://www.w3.org/2000/svg" viewBox="0 0 17 18">
    <path fill="#636671" fill-rule="evenodd" d="M 16.31 3.01 L 12.01 3.01 L 12.01 0.67 C 12.01 0.3 11.72 0 11.36 0 L 5.64 0 C 5.28 0 4.99 0.3 4.99 0.67 L 4.99 3.01 L 0.69 3.01 C 0.33 3.01 0.04 3.31 0.04 3.68 C 0.04 4.05 0.33 4.35 0.69 4.35 L 2.28 4.35 L 3.3 17.39 C 3.33 17.73 3.61 18 3.95 18 L 13.05 18 C 13.39 18 13.67 17.73 13.7 17.39 L 14.72 4.35 L 16.31 4.35 C 16.67 4.35 16.96 4.05 16.96 3.68 C 16.96 3.31 16.67 3.01 16.31 3.01 L 16.31 3.01 Z M 6.28 1.34 L 10.72 1.34 L 10.72 3.01 L 6.28 3.01 L 6.28 1.34 L 6.28 1.34 Z M 12.46 16.66 L 4.54 16.66 L 3.57 4.35 L 13.43 4.35 L 12.46 16.66 L 12.46 16.66 Z M 12.46 16.66" />
</svg>