<?xml version="1.0" encoding="UTF-8" standalone="no"?>
<svg width="27px" height="27px" viewBox="0 0 27 27" version="1.1" xmlns="http://www.w3.org/2000/svg" xmlns:xlink="http://www.w3.org/1999/xlink">
    <!-- Generator: Sketch 3.8.1 (29687) - http://www.bohemiancoding.com/sketch -->
    <title>search</title>
    <desc>Created with Sketch.</desc>
    <defs></defs>
    <g id="Page-1" stroke="none" stroke-width="1" fill="none" fill-rule="evenodd">
        <g id="Index" transform="translate(-1240.000000, -70.000000)" fill="#9E9E9E">
            <g id="Head-menu" transform="translate(47.000000, 37.000000)">
                <g id="search" transform="translate(1193.000000, 33.000000)">
                    <path d="M11.3503204,22.3853541 C8.40291439,22.3853541 5.63197023,21.2377352 3.54774637,19.1535114 C1.4635225,17.0692875 0.315903676,14.2983434 0.315903676,11.3509374 C0.315903676,8.40353139 1.4635225,5.63258723 3.54774637,3.54836337 C5.63135323,1.4641395 8.40291439,0.315903676 11.3503204,0.315903676 C14.2977264,0.315903676 17.0692875,1.4635225 19.1528944,3.54836337 C23.455231,7.85069996 23.455231,14.8511748 19.1528944,19.1535114 C17.0692875,21.2377352 14.2983434,22.3853541 11.3503204,22.3853541 L11.3503204,22.3853541 Z M11.3503204,2.16751878 C8.89713089,2.16751878 6.59078725,3.1226338 4.85640203,4.85763603 C3.1213998,6.59263825 2.16690178,8.89836489 2.16690178,11.3509374 C2.16690178,13.8035099 3.1220168,16.1098535 4.85640203,17.8448557 C6.59140425,19.5798579 8.89713089,20.534356 11.3503204,20.534356 C13.8035099,20.534356 16.1098535,19.5792409 17.8442387,17.8448557 C21.4246861,14.2644084 21.4246861,8.43808336 17.8442387,4.85763603 C16.1098535,3.1226338 13.8041269,2.16751878 11.3503204,2.16751878 L11.3503204,2.16751878 Z" id="Shape"></path>
                    <path d="M24.7833187,26.0932083 L17.8448557,19.1535114 C17.4832941,18.7919498 17.4832941,18.2064174 17.8448557,17.8448557 C18.2064174,17.4832941 18.7919498,17.4832941 19.1535114,17.8448557 L26.0925913,24.7845527 C26.454153,25.1461143 26.454153,25.7316467 26.0925913,26.0932083 C25.9118105,26.2739891 25.6748828,26.364071 25.437955,26.364071 C25.2010272,26.364071 24.9640995,26.2739891 24.7833187,26.0932083 Z" id="Shape"></path>
                </g>
            </g>
        </g>
    </g>
</svg>