<?xml version="1.0" encoding="UTF-8" standalone="no"?>
<svg
   xmlns:dc="http://purl.org/dc/elements/1.1/"
   xmlns:cc="http://creativecommons.org/ns#"
   xmlns:rdf="http://www.w3.org/1999/02/22-rdf-syntax-ns#"
   xmlns:svg="http://www.w3.org/2000/svg"
   xmlns="http://www.w3.org/2000/svg"
   xmlns:sodipodi="http://sodipodi.sourceforge.net/DTD/sodipodi-0.dtd"
   xmlns:inkscape="http://www.inkscape.org/namespaces/inkscape"
   width="51.240192"
   height="7.7968841"
   viewBox="0 0 51.240192 7.7968841"
   version="1.1"
   id="svg2"
   inkscape:version="0.91 r13725"
   sodipodi:docname="slider-arrow-left-1.svg">
  <metadata
     id="metadata18">
    <rdf:RDF>
      <cc:Work
         rdf:about="">
        <dc:format>image/svg+xml</dc:format>
        <dc:type
           rdf:resource="http://purl.org/dc/dcmitype/StillImage" />
        <dc:title>Combined Shape</dc:title>
      </cc:Work>
    </rdf:RDF>
  </metadata>
  <sodipodi:namedview
     pagecolor="#ffffff"
     bordercolor="#666666"
     borderopacity="1"
     objecttolerance="10"
     gridtolerance="10"
     guidetolerance="10"
     inkscape:pageopacity="0"
     inkscape:pageshadow="2"
     inkscape:window-width="1920"
     inkscape:window-height="1017"
     id="namedview16"
     showgrid="false"
     fit-margin-top="0"
     fit-margin-left="0"
     fit-margin-right="0"
     fit-margin-bottom="0"
     inkscape:zoom="6"
     inkscape:cx="2.398443"
     inkscape:cy="3.8984475"
     inkscape:window-x="-8"
     inkscape:window-y="-8"
     inkscape:window-maximized="1"
     inkscape:current-layer="svg2" />
  <!-- Generator: Sketch 3.8.2 (29753) - http://www.bohemiancoding.com/sketch -->
  <title
     id="title4">Combined Shape</title>
  <desc
     id="desc6">Created with Sketch.</desc>
  <defs
     id="defs8" />
  <g
     id="Page-1"
     style="fill:none;fill-rule:evenodd;stroke:none;stroke-width:1"
     transform="translate(-0.851557,-0.60156322)">
    <g
       id="Index"
       transform="translate(-1121,-4377)"
       style="fill:#000000">
      <g
         id="Group-8"
         transform="translate(1121,4373)">
        <g
           id="Спроси-нас-button-Copy"
           transform="matrix(-1,0,0,-1,53,13)">
          <g
             id="Group-2">
            <path
               d="M 50.250009,4 47.679688,1.4296785 c -0.04687,-0.046875 -0.07813,-0.1171877 -0.07813,-0.1796877 0,-0.0625 0.03125,-0.1328127 0.07813,-0.1796878 l 0.390625,-0.39062542 c 0.04687,-0.0468751 0.117188,-0.0781251 0.179688,-0.0781251 0.0625,0 0.132813,0.03125 0.179688,0.0781251 l 3.640629,3.64062932 c 0.04687,0.046875 0.07813,0.1171877 0.07813,0.1796877 0,0.0625 -0.03125,0.1328127 -0.07813,0.1796877 l -3.640629,3.6406294 c -0.04687,0.046875 -0.117188,0.078125 -0.179688,0.078125 -0.0625,0 -0.132813,-0.03125 -0.179688,-0.078125 L 47.679688,7.9296862 c -0.04687,-0.046875 -0.07813,-0.1093751 -0.07813,-0.1796877 0,-0.0625 0.03125,-0.1328127 0.07813,-0.1796877 L 50.249998,5 1.4082492,5 0.90824917,5 l 0,-1 0.50000003,0 48.8417598,0 z"
               id="Combined-Shape"
               inkscape:connector-curvature="0" />
          </g>
        </g>
      </g>
    </g>
  </g>
</svg>
