<?xml version="1.0" encoding="UTF-8" standalone="no"?>
<svg width="144px" height="124px" viewBox="0 0 144 124" version="1.1" xmlns="http://www.w3.org/2000/svg" xmlns:xlink="http://www.w3.org/1999/xlink">
    <!-- Generator: Sketch 3.8.3 (29802) - http://www.bohemiancoding.com/sketch -->
    <title>Group</title>
    <desc>Created with Sketch.</desc>
    <defs></defs>
    <g id="Page-1" stroke="none" stroke-width="1" fill="none" fill-rule="evenodd">
        <g id="Video-course-bought-review" transform="translate(-528.000000, -630.000000)" fill="#9E9E9E">
            <g id="Upload-review" transform="translate(471.000000, 600.000000)">
                <g id="Group-7" transform="translate(0.000000, 30.000000)">
                    <g id="Group" transform="translate(57.000000, 0.000000)">
                        <path d="M115.556667,93.25 L90.4933333,93.25 C89.0333333,93.25 88.06,92.2730769 88.06,90.8076923 C88.06,89.3423077 89.0333333,88.3653846 90.4933333,88.3653846 L115.313333,88.3653846 C128.21,88.3653846 138.673333,77.8634615 138.673333,64.9192308 C138.673333,51.975 128.21,41.4730769 115.313333,41.4730769 L115.07,41.4730769 L112.636667,41.4730769 L112.393333,39.275 C109.96,19.4923077 93.17,4.83846154 73.46,4.83846154 C57.8866667,4.83846154 43.7733333,14.1192308 37.4466667,28.5288462 L36.7166667,29.9942308 L35.0133333,29.9942308 L34.04,29.9942308 C17.98,29.9942308 5.08333333,42.9384615 5.08333333,59.0576923 C5.08333333,75.1769231 18.2233333,88.3653846 34.2833333,88.3653846 L54.2366667,88.3653846 C55.6966667,88.3653846 56.67,89.3423077 56.67,90.8076923 C56.67,92.2730769 55.6966667,93.25 54.2366667,93.25 L34.2833333,93.25 C15.5466667,93.25 0.46,78.1076923 0.46,59.3019231 C0.46,40.7403846 15.5466667,25.5980769 34.04,25.3538462 C41.34,9.96730769 56.67,0.198076923 73.7033333,0.198076923 C95.1166667,0.198076923 113.366667,15.8288462 117.016667,36.8326923 C131.86,37.5653846 143.783333,50.0211538 143.783333,65.1634615 C143.783333,80.55 131.13,93.25 115.556667,93.25 L115.556667,93.25 Z" id="Shape"></path>
                        <path d="M72,51.975 L51.56,72.4903846 C50.5866667,73.4673077 50.5866667,74.9326923 51.56,75.9096154 C52.5333333,76.8865385 53.9933333,76.8865385 54.9666667,75.9096154 L69.5666667,61.2557692 L69.5666667,120.603846 C69.5666667,122.069231 70.54,123.046154 72,123.046154 C73.46,123.046154 74.4333333,122.069231 74.4333333,120.603846 L74.4333333,61.2557692 L89.0333333,75.9096154 C89.52,76.3980769 90.0066667,76.6423077 90.7366667,76.6423077 C91.4666667,76.6423077 91.9533333,76.3980769 92.44,75.9096154 C93.4133333,75.1769231 93.4133333,73.7115385 92.44,72.7346154 L72,51.975 Z" id="Shape"></path>
                    </g>
                </g>
            </g>
        </g>
    </g>
</svg>