<?xml version="1.0" encoding="UTF-8" standalone="no"?>
<svg width="158px" height="157px" viewBox="0 0 158 157" version="1.1" xmlns="http://www.w3.org/2000/svg" xmlns:xlink="http://www.w3.org/1999/xlink">
    <!-- Generator: Sketch 3.8.3 (29802) - http://www.bohemiancoding.com/sketch -->
    <title>Group Copy + Group Copy 2 + Group Copy 3 Mask</title>
    <desc>Created with Sketch.</desc>
    <defs>
        <rect id="path-1" x="0.285714286" y="0" width="157.285714" height="157"></rect>
    </defs>
    <g id="Page-1" stroke="none" stroke-width="1" fill="none" fill-rule="evenodd">
        <g id="Teacher-page-course" transform="translate(-497.000000, -776.000000)">
            <g id="Calendar" transform="translate(339.000000, 354.000000)">
                <g id="3" transform="translate(1.000000, 422.000000)">
                    <g id="Group-Copy-+-Group-Copy-2-+-Group-Copy-3-Mask" transform="translate(157.000000, 0.000000)">
                        <mask id="mask-2" fill="white">
                            <use xlink:href="#path-1"></use>
                        </mask>
                        <use id="Mask" fill="#FF9000" xlink:href="#path-1"></use>
                        <g id="Group-Copy" opacity="0.4" mask="url(#mask-2)" fill="#FFFFFF">
                            <g transform="translate(119.000000, 90.000000)" id="Shape">
                                <path d="M39.1391679,46.9268293 L3.78766141,46.9268293 C2.39380201,46.9268293 1.2625538,48.0632195 1.2625538,49.4634146 C1.2625538,50.8636098 2.39380201,52 3.78766141,52 L39.1391679,52 C40.5330273,52 41.6642755,50.8636098 41.6642755,49.4634146 C41.6642755,48.0632195 40.5330273,46.9268293 39.1391679,46.9268293 L39.1391679,46.9268293 Z"></path>
                                <path d="M7.19150646,42.1009756 C10.4223816,42.1009756 16.2238164,41.0749268 18.4156098,38.874439 L39.8424103,17.3502439 C42.7967862,14.3837073 42.7967862,9.55531707 39.8424103,6.58878049 L36.2706456,3.00204878 C34.8439598,1.56887805 32.9412912,0.78 30.9148924,0.78 C28.8884935,0.78 26.985825,1.56887805 25.5591392,3.00204878 L20.2892396,8.29463415 C20.262726,8.32 20.2298996,8.33902439 20.2046485,8.36439024 C20.1781349,8.39102439 20.1604591,8.42146341 20.1364706,8.44809756 L4.13107604,24.5262439 C2.17285509,26.4933659 1.34209469,30.9577561 1.13377331,32.2793171 C0.486083214,36.3885854 0.893888092,39.2118049 2.34456241,40.6678049 C3.31925395,41.6469268 4.85830703,42.1009756 7.19150646,42.1009756 L7.19150646,42.1009756 Z M29.1283788,6.58878049 C30.0752941,5.63882927 31.7519656,5.63756098 32.6988809,6.58878049 L36.2706456,10.1755122 C37.254175,11.1647805 37.254175,12.7742439 36.2706456,13.7635122 L32.7317073,17.3185366 C29.2824103,13.7559024 27.0994548,11.5110244 25.6475179,10.0854634 L29.1283788,6.58878049 L29.1283788,6.58878049 Z M7.70284075,28.1129756 L22.0505022,13.7000976 C23.7877762,15.4262439 26.6310473,18.3242927 29.1523673,20.9166829 L14.8501578,35.2813659 C14.1115638,35.9548293 10.3049641,37.0278049 7.19150646,37.0278049 C6.60441894,37.0278049 6.21302726,36.9872195 5.96809182,36.9453659 C5.53377331,34.9998049 6.60189383,29.2937561 7.70284075,28.1129756 L7.70284075,28.1129756 Z"></path>
                            </g>
                        </g>
                        <g id="Group-Copy-2" opacity="0.2" mask="url(#mask-2)" fill="#FFFFFF">
                            <g transform="translate(-8.000000, 91.000000)" id="Shape">
                                <path d="M11.3760809,71.057439 C16.9361917,71.057439 26.9200561,69.3013171 30.6919796,65.5350976 L67.5660085,28.6956098 C72.6502833,23.6182683 72.6502833,15.3542927 67.5660085,10.2769512 L61.4192506,4.13812195 C58.9640239,1.68519512 55.689664,0.335 52.202373,0.335 C48.7150819,0.335 45.440722,1.68519512 42.9854953,4.13812195 L33.9163658,13.1965854 C33.8707377,13.24 33.8142458,13.272561 33.7707904,13.3159756 C33.7251623,13.361561 33.6947436,13.4136585 33.653461,13.4592439 L6.10929365,40.9776098 C2.73933202,44.3444146 1.30965133,51.9853902 0.951144773,54.2472927 C-0.163484702,61.2804634 0.538319042,66.1125122 3.03482833,68.6045122 C4.71220446,70.2803171 7.36080745,71.057439 11.3760809,71.057439 L11.3760809,71.057439 Z M49.1279076,10.2769512 C50.7574829,8.65107317 53.6429175,8.64890244 55.2724927,10.2769512 L61.4192506,16.4157805 C63.1118361,18.1089512 63.1118361,20.8636098 61.4192506,22.5567805 L55.3289847,28.6413415 C49.3929852,22.5437561 45.6362711,18.701561 43.137589,16.2616585 L49.1279076,10.2769512 L49.1279076,10.2769512 Z M12.2560515,47.116439 L36.9473758,22.4482439 C39.9371032,25.4026098 44.8301745,30.3627317 49.1691902,34.7997073 L24.5560855,59.3854146 C23.2850168,60.5380732 16.7341243,62.3745122 11.3760809,62.3745122 C10.3657442,62.3745122 9.69218645,62.3050488 9.27066965,62.2334146 C8.5232378,58.9035122 10.3613987,49.1373902 12.2560515,47.116439 L12.2560515,47.116439 Z"></path>
                            </g>
                        </g>
                        <g id="Group-Copy-3" opacity="0.2" mask="url(#mask-2)" fill="#FFFFFF">
                            <g transform="translate(12.000000, -89.000000)" id="Shape">
                                <path d="M129.025122,154.127494 L10.7300298,154.127494 C6.06582326,154.127494 2.28038029,157.906936 2.28038029,162.563747 C2.28038029,167.220559 6.06582326,171 10.7300298,171 L129.025122,171 C133.689329,171 137.474772,167.220559 137.474772,162.563747 C137.474772,157.906936 133.689329,154.127494 129.025122,154.127494 L129.025122,154.127494 Z"></path>
                                <path d="M22.1201573,138.077524 C32.9314838,138.077524 52.3445534,134.665059 59.6788492,127.34661 L131.37835,55.7607871 C141.26444,45.8945895 141.26444,29.8361824 131.37835,19.9699848 L119.426321,8.04112334 C114.652269,3.27464052 108.285458,0.650965909 101.504614,0.650965909 C94.7237704,0.650965909 88.3569595,3.27464052 83.5829076,8.04112334 L65.9484891,25.6433647 C65.8597678,25.7277273 65.7499223,25.7909992 65.6654258,25.8753617 C65.5767045,25.9639424 65.517557,26.0651774 65.4372853,26.153758 L11.8791821,79.6269462 C5.32647893,86.1692603 2.54654425,101.017065 1.84944817,105.412353 C-0.31788692,119.079082 1.04673147,128.468632 5.90105509,133.311041 C9.16261979,136.567434 14.3126811,138.077524 22.1201573,138.077524 L22.1201573,138.077524 Z M95.5264871,19.9699848 C98.6951056,16.8106081 104.305673,16.80639 107.474291,19.9699848 L119.426321,31.8988462 C122.717459,35.1889848 122.717459,40.5417871 119.426321,43.8319257 L107.584137,55.655334 C96.0419157,43.806617 88.7371937,36.3405333 83.8786453,31.5993592 L95.5264871,19.9699848 L95.5264871,19.9699848 Z M23.8312113,91.5558076 L71.8421196,43.6210194 C77.6554784,49.3618894 87.1697838,59.0003082 95.6067588,67.6221585 L47.7479441,115.396658 C45.2764217,117.636483 32.5385751,121.205018 22.1201573,121.205018 C20.1556138,121.205018 18.8459181,121.070038 18.0263021,120.93084 C16.5729624,114.460234 20.1471641,95.4828833 23.8312113,91.5558076 L23.8312113,91.5558076 Z"></path>
                            </g>
                        </g>
                    </g>
                </g>
            </g>
        </g>
    </g>
</svg>