<?xml version="1.0" standalone="no"?>
<!DOCTYPE svg PUBLIC "-//W3C//DTD SVG 20010904//EN"
 "http://www.w3.org/TR/2001/REC-SVG-20010904/DTD/svg10.dtd">
<svg version="1.0" xmlns="http://www.w3.org/2000/svg"
 width="597.000000pt" height="597.000000pt" viewBox="0 0 597.000000 597.000000"
 preserveAspectRatio="xMidYMid meet">
<metadata>
Created by potrace 1.11, written by Peter Selinger 2001-2013
</metadata>
<g transform="translate(0.000000,597.000000) scale(0.100000,-0.100000)"
fill="#000000" stroke="none">
<path d="M3389 5876 c-2 -2 -38 -7 -79 -10 -42 -4 -87 -8 -100 -11 -14 -2 -68
-11 -120 -20 -140 -24 -219 -44 -355 -93 -363 -130 -624 -360 -878 -776 -7
-11 -27 -44 -45 -73 -30 -49 -282 -554 -282 -566 0 -15 -99 -178 -150 -246
-109 -147 -220 -250 -505 -471 -282 -219 -438 -394 -541 -610 -29 -59 -73
-165 -79 -190 -3 -8 -14 -51 -26 -95 -37 -143 -47 -231 -44 -405 2 -91 6 -178
10 -195 3 -16 13 -64 21 -105 34 -168 114 -378 206 -539 26 -46 48 -86 48 -88
0 -2 5 -9 10 -16 6 -7 36 -49 68 -93 107 -152 150 -202 296 -347 317 -314 669
-534 1099 -688 96 -34 290 -90 357 -103 119 -22 192 -35 233 -41 27 -4 58 -8
70 -10 94 -19 468 -25 637 -12 143 11 420 58 515 87 17 6 77 24 135 41 58 17
160 53 226 79 815 324 1314 902 1518 1760 26 110 31 131 46 220 6 30 12 65 14
77 3 11 7 43 11 70 4 26 9 59 11 73 2 14 6 52 9 85 3 33 8 74 10 90 27 186 27
877 -1 1020 -2 11 -7 47 -10 80 -4 33 -8 63 -10 66 -2 4 -6 24 -10 45 -9 62
-52 251 -75 328 -139 479 -394 906 -700 1175 -121 106 -129 112 -229 179 -227
153 -538 271 -805 308 -27 3 -61 8 -75 10 -35 6 -426 15 -431 10z"/>
</g>
</svg>
