<?xml version="1.0" encoding="UTF-8" standalone="no"?>
<svg width="23px" height="123px" viewBox="0 0 23 123" version="1.1" xmlns="http://www.w3.org/2000/svg" xmlns:xlink="http://www.w3.org/1999/xlink">
    <!-- Generator: Sketch 3.8.3 (29802) - http://www.bohemiancoding.com/sketch -->
    <title>ABOUT</title>
    <desc>Created with Sketch.</desc>
    <defs></defs>
    <g id="Page-1" stroke="none" stroke-width="1" fill="none" fill-rule="evenodd">
        <g id="About" transform="translate(-68.000000, -179.000000)" fill="#000000">
            <g transform="translate(68.000000, 0.000000)" id="ABOUT">
                <path d="M-50.18,250.5 L-48.56,250.5 L-45.89,244.62 L-33.5,244.62 L-30.83,250.5 L-29.12,250.5 L-38.9,229.35 L-40.4,229.35 L-50.18,250.5 Z M-45.23,243.21 L-39.68,231.06 L-34.16,243.21 L-45.23,243.21 Z M-21.68,250.5 L-12.56,250.5 C-8.03,250.5 -5.03,248.28 -5.03,244.77 C-5.03,241.8 -7.25,240.36 -9.77,239.7 C-8.06,239.01 -6.2,237.57 -6.2,234.72 C-6.2,231.54 -8.9,229.5 -13.01,229.5 L-21.68,229.5 L-21.68,250.5 Z M-20.12,249.06 L-20.12,240.63 L-13.01,240.63 C-8.87,240.63 -6.62,242.13 -6.62,244.71 C-6.62,247.41 -8.9,249.06 -12.5,249.06 L-20.12,249.06 Z M-20.12,239.19 L-20.12,230.94 L-13.04,230.94 C-9.68,230.94 -7.79,232.5 -7.79,234.81 C-7.79,237.66 -10.04,239.19 -13.19,239.19 L-20.12,239.19 Z M12.58,250.86 C18.94,250.86 23.17,245.73 23.17,240 C23.17,234.21 19,229.14 12.64,229.14 C6.28,229.14 2.05,234.27 2.05,240 C2.05,245.79 6.22,250.86 12.58,250.86 L12.58,250.86 Z M12.64,249.45 C7.45,249.45 3.67,245.19 3.67,240 C3.67,234.75 7.39,230.55 12.58,230.55 C17.77,230.55 21.55,234.81 21.55,240 C21.55,245.25 17.83,249.45 12.64,249.45 L12.64,249.45 Z M39.76,250.83 C44.86,250.83 48.37,247.62 48.37,241.59 L48.37,229.5 L46.81,229.5 L46.81,241.77 C46.81,246.84 44.08,249.42 39.82,249.42 C35.38,249.42 32.71,246.57 32.71,241.62 L32.71,229.5 L31.15,229.5 L31.15,241.77 C31.15,247.65 34.72,250.83 39.76,250.83 L39.76,250.83 Z M63.1,250.5 L64.66,250.5 L64.66,230.94 L71.98,230.94 L71.98,229.5 L55.78,229.5 L55.78,230.94 L63.1,230.94 L63.1,250.5 Z" transform="translate(11.710000, 240.000000) rotate(-90.000000) translate(-11.710000, -240.000000) "></path>
            </g>
        </g>
    </g>
</svg>