<?xml version="1.0" encoding="UTF-8" standalone="no"?>
<svg width="46px" height="139px" viewBox="0 0 46 139" version="1.1" xmlns="http://www.w3.org/2000/svg" xmlns:xlink="http://www.w3.org/1999/xlink">
    <!-- Generator: Sketch 3.8.1 (29687) - http://www.bohemiancoding.com/sketch -->
    <title>Group 4</title>
    <desc>Created with Sketch.</desc>
    <defs></defs>
    <g id="Page-1" stroke="none" stroke-width="1" fill="none" fill-rule="evenodd">
        <g id="Index" transform="translate(-57.000000, -1733.000000)">
            <g id="ABout" transform="translate(57.000000, 1729.000000)">
                <g id="About-(navigation)" transform="translate(0.000000, 2.000000)">
                    <g id="Group-4">
                        <path d="M-43.28,81 L-41.66,81 L-38.99,75.12 L-26.6,75.12 L-23.93,81 L-22.22,81 L-32,59.85 L-33.5,59.85 L-43.28,81 Z M-38.33,73.71 L-32.78,61.56 L-27.26,73.71 L-38.33,73.71 Z M-17.78,81 L-8.66,81 C-4.13,81 -1.13,78.78 -1.13,75.27 C-1.13,72.3 -3.35,70.86 -5.87,70.2 C-4.16,69.51 -2.3,68.07 -2.3,65.22 C-2.3,62.04 -5,60 -9.11,60 L-17.78,60 L-17.78,81 Z M-16.22,79.56 L-16.22,71.13 L-9.11,71.13 C-4.97,71.13 -2.72,72.63 -2.72,75.21 C-2.72,77.91 -5,79.56 -8.6,79.56 L-16.22,79.56 Z M-16.22,69.69 L-16.22,61.44 L-9.14,61.44 C-5.78,61.44 -3.89,63 -3.89,65.31 C-3.89,68.16 -6.14,69.69 -9.29,69.69 L-16.22,69.69 Z M66.16,81.33 C71.26,81.33 74.77,78.12 74.77,72.09 L74.77,60 L73.21,60 L73.21,72.27 C73.21,77.34 70.48,79.92 66.22,79.92 C61.78,79.92 59.11,77.07 59.11,72.12 L59.11,60 L57.55,60 L57.55,72.27 C57.55,78.15 61.12,81.33 66.16,81.33 L66.16,81.33 Z M86.5,81 L88.06,81 L88.06,61.44 L95.38,61.44 L95.38,60 L79.18,60 L79.18,61.44 L86.5,61.44 L86.5,81 Z" id="AB------UT" fill="#000000" transform="translate(26.860000, 70.590000) rotate(-90.000000) translate(-26.860000, -70.590000) "></path>
                        <g id="Group" transform="translate(0.914721, 48.748335)">
                            <path d="M0.566252998,22.5490854 C0.566252998,34.5012964 10.4359552,44.4190886 22.3302117,44.4190886 C34.4775375,44.4190886 44.0941704,34.5012964 44.0941704,22.5490854 C44.0941704,10.5968743 34.4775375,0.679082142 22.3302117,0.679082142 C10.1828859,0.679082142 0.566252998,10.5968743 0.566252998,22.5490854 Z" id="Shape" stroke="#FFFFFF" stroke-width="2"></path>
                            <path d="M0.566252998,22.5490854 C0.566252998,34.5012964 10.4359552,44.4190886 22.3302117,44.4190886 C34.4775375,44.4190886 44.0941704,34.5012964 44.0941704,22.5490854 C44.0941704,10.5968743 34.4775375,0.679082142 22.3302117,0.679082142 C10.1828859,0.679082142 0.566252998,10.5968743 0.566252998,22.5490854 Z" id="Shape-Copy" fill="#FFE400"></path>
                            <path d="M24.9501616,5.52973905 C18.1746951,5.52973905 12.7543219,10.9765229 12.7543219,17.7850028 C12.7543219,19.9637164 14.6514525,21.8700907 16.8196018,21.8700907 C18.9877511,21.8700907 20.8848817,19.9637164 20.8848817,17.7850028 C20.8848817,15.6062893 22.7820123,13.6999149 24.9501616,13.6999149 C27.1183109,13.6999149 29.0154415,11.7935405 29.0154415,9.61482697 C29.0154415,7.43611342 27.3893296,5.52973905 24.9501616,5.52973905 L24.9501616,5.52973905 Z" id="Shape" fill="#FFFFFF" transform="translate(20.884882, 13.699915) rotate(44.000000) translate(-20.884882, -13.699915) "></path>
                        </g>
                    </g>
                </g>
            </g>
        </g>
    </g>
</svg>