<?xml version="1.0" encoding="UTF-8" standalone="no"?>
<svg width="22px" height="230px" viewBox="0 0 22 230" version="1.1" xmlns="http://www.w3.org/2000/svg" xmlns:xlink="http://www.w3.org/1999/xlink">
    <!-- Generator: Sketch 3.8.1 (29687) - http://www.bohemiancoding.com/sketch -->
    <title>ADD LESSON</title>
    <desc>Created with Sketch.</desc>
    <defs></defs>
    <g id="Page-1" stroke="none" stroke-width="1" fill="none" fill-rule="evenodd">
        <g id="POP-UP-Add-lesson" transform="translate(-69.000000, -180.000000)" fill="#000000">
            <path d="M-35.68,304 L-34.06,304 L-31.39,298.12 L-19,298.12 L-16.33,304 L-14.62,304 L-24.4,282.85 L-25.9,282.85 L-35.68,304 Z M-30.73,296.71 L-25.18,284.56 L-19.66,296.71 L-30.73,296.71 Z M-7.18,304 L-0.19,304 C6.41,304 10.97,299.41 10.97,293.5 C10.97,287.53 6.41,283 -0.19,283 L-7.18,283 L-7.18,304 Z M-5.62,302.56 L-5.62,284.44 L-0.19,284.44 C5.66,284.44 9.35,288.52 9.35,293.5 C9.35,298.57 5.66,302.56 -0.19,302.56 L-5.62,302.56 Z M19.28,304 L26.27,304 C32.87,304 37.43,299.41 37.43,293.5 C37.43,287.53 32.87,283 26.27,283 L19.28,283 L19.28,304 Z M20.84,302.56 L20.84,284.44 L26.27,284.44 C32.12,284.44 35.81,288.52 35.81,293.5 C35.81,298.57 32.12,302.56 26.27,302.56 L20.84,302.56 Z M57.74,304 L71.63,304 L71.63,302.56 L59.3,302.56 L59.3,283 L57.74,283 L57.74,304 Z M79.31,304 L94.4,304 L94.4,302.56 L80.87,302.56 L80.87,294.13 L92.9,294.13 L92.9,292.69 L80.87,292.69 L80.87,284.44 L94.25,284.44 L94.25,283 L79.31,283 L79.31,304 Z M109.52,304.3 C113.57,304.3 116.48,301.96 116.48,298.57 C116.48,295.45 114.44,293.71 109.58,292.72 C104.6,291.7 103.46,290.35 103.46,288.13 C103.46,285.88 105.5,284.11 108.59,284.11 C110.9,284.11 112.88,284.77 114.86,286.48 L115.85,285.25 C113.72,283.54 111.71,282.7 108.65,282.7 C104.75,282.7 101.9,285.1 101.9,288.22 C101.9,291.46 103.94,293.17 108.98,294.19 C113.75,295.15 114.92,296.44 114.92,298.66 C114.92,301.12 112.76,302.89 109.61,302.89 C106.52,302.89 104.39,301.9 102.08,299.77 L101.06,300.94 C103.58,303.19 106.16,304.3 109.52,304.3 L109.52,304.3 Z M131.42,304.3 C135.47,304.3 138.38,301.96 138.38,298.57 C138.38,295.45 136.34,293.71 131.48,292.72 C126.5,291.7 125.36,290.35 125.36,288.13 C125.36,285.88 127.4,284.11 130.49,284.11 C132.8,284.11 134.78,284.77 136.76,286.48 L137.75,285.25 C135.62,283.54 133.61,282.7 130.55,282.7 C126.65,282.7 123.8,285.1 123.8,288.22 C123.8,291.46 125.84,293.17 130.88,294.19 C135.65,295.15 136.82,296.44 136.82,298.66 C136.82,301.12 134.66,302.89 131.51,302.89 C128.42,302.89 126.29,301.9 123.98,299.77 L122.96,300.94 C125.48,303.19 128.06,304.3 131.42,304.3 L131.42,304.3 Z M156.11,304.36 C162.47,304.36 166.7,299.23 166.7,293.5 C166.7,287.71 162.53,282.64 156.17,282.64 C149.81,282.64 145.58,287.77 145.58,293.5 C145.58,299.29 149.75,304.36 156.11,304.36 L156.11,304.36 Z M156.17,302.95 C150.98,302.95 147.2,298.69 147.2,293.5 C147.2,288.25 150.92,284.05 156.11,284.05 C161.3,284.05 165.08,288.31 165.08,293.5 C165.08,298.75 161.36,302.95 156.17,302.95 L156.17,302.95 Z M175.01,304 L176.51,304 L176.51,285.34 L191.3,304 L192.47,304 L192.47,283 L190.97,283 L190.97,301.27 L176.48,283 L175.01,283 L175.01,304 Z" id="ADD-LESSON" transform="translate(79.955000, 293.500000) rotate(-90.000000) translate(-79.955000, -293.500000) "></path>
        </g>
    </g>
</svg>