<?xml version="1.0" encoding="UTF-8" standalone="no"?>
<svg width="22px" height="65px" viewBox="0 0 22 65" version="1.1" xmlns="http://www.w3.org/2000/svg" xmlns:xlink="http://www.w3.org/1999/xlink">
    <!-- Generator: Sketch 3.8.1 (29687) - http://www.bohemiancoding.com/sketch -->
    <title>ALL</title>
    <desc>Created with Sketch.</desc>
    <defs></defs>
    <g id="Page-1" stroke="none" stroke-width="1" fill="none" fill-rule="evenodd">
        <g id="Events" transform="translate(-65.000000, -606.000000)" fill="#000000">
            <g id="All" transform="translate(52.000000, 603.000000)">
                <path d="M-8.18,46.5 L-6.56,46.5 L-3.89,40.62 L8.5,40.62 L11.17,46.5 L12.88,46.5 L3.1,25.35 L1.6,25.35 L-8.18,46.5 Z M-3.23,39.21 L2.32,27.06 L7.84,39.21 L-3.23,39.21 Z M20.32,46.5 L34.21,46.5 L34.21,45.06 L21.88,45.06 L21.88,25.5 L20.32,25.5 L20.32,46.5 Z M41.89,46.5 L55.78,46.5 L55.78,45.06 L43.45,45.06 L43.45,25.5 L41.89,25.5 L41.89,46.5 Z" id="ALL" transform="translate(23.800000, 35.925000) rotate(-90.000000) translate(-23.800000, -35.925000) "></path>
            </g>
        </g>
    </g>
</svg>