<?xml version="1.0" encoding="UTF-8" standalone="no"?>
<svg width="22px" height="69px" viewBox="0 0 22 69" version="1.1" xmlns="http://www.w3.org/2000/svg" xmlns:xlink="http://www.w3.org/1999/xlink">
    <!-- Generator: Sketch 3.8.1 (29687) - http://www.bohemiancoding.com/sketch -->
    <title>ASK</title>
    <desc>Created with Sketch.</desc>
    <defs></defs>
    <g id="Page-1" stroke="none" stroke-width="1" fill="none" fill-rule="evenodd">
        <g id="About" transform="translate(-69.000000, -2975.000000)" fill="#000000">
            <g id="ASK" transform="translate(56.000000, 2970.000000)">
                <path d="M-10.18,49.5 L-8.56,49.5 L-5.89,43.62 L6.5,43.62 L9.17,49.5 L10.88,49.5 L1.1,28.35 L-0.4,28.35 L-10.18,49.5 Z M-5.23,42.21 L0.32,30.06 L5.84,42.21 L-5.23,42.21 Z M24.98,49.8 C29.03,49.8 31.94,47.46 31.94,44.07 C31.94,40.95 29.9,39.21 25.04,38.22 C20.06,37.2 18.92,35.85 18.92,33.63 C18.92,31.38 20.96,29.61 24.05,29.61 C26.36,29.61 28.34,30.27 30.32,31.98 L31.31,30.75 C29.18,29.04 27.17,28.2 24.11,28.2 C20.21,28.2 17.36,30.6 17.36,33.72 C17.36,36.96 19.4,38.67 24.44,39.69 C29.21,40.65 30.38,41.94 30.38,44.16 C30.38,46.62 28.22,48.39 25.07,48.39 C21.98,48.39 19.85,47.4 17.54,45.27 L16.52,46.44 C19.04,48.69 21.62,49.8 24.98,49.8 L24.98,49.8 Z M40.07,49.5 L41.63,49.5 L41.63,44.16 L46.85,38.88 L55.49,49.5 L57.53,49.5 L47.96,37.77 L57.14,28.5 L55.01,28.5 L41.63,42.3 L41.63,28.5 L40.07,28.5 L40.07,49.5 Z" transform="translate(24.110000, 39.000000) rotate(-90.000000) translate(-24.110000, -39.000000) "></path>
            </g>
        </g>
    </g>
</svg>