<?xml version="1.0" encoding="UTF-8" standalone="no"?>
<svg width="23px" height="92px" viewBox="0 0 23 92" version="1.1" xmlns="http://www.w3.org/2000/svg" xmlns:xlink="http://www.w3.org/1999/xlink">
    <!-- Generator: Sketch 3.8.1 (29687) - http://www.bohemiancoding.com/sketch -->
    <title>BLOG</title>
    <desc>Created with Sketch.</desc>
    <defs></defs>
    <g id="Page-1" stroke="none" stroke-width="1" fill="none" fill-rule="evenodd">
        <g id="Index" transform="translate(-68.000000, -2400.000000)" fill="#000000">
            <g id="Blog" transform="translate(55.000000, 2394.000000)">
                <path d="M-22.38,61.5 L-13.26,61.5 C-8.73,61.5 -5.73,59.28 -5.73,55.77 C-5.73,52.8 -7.95,51.36 -10.47,50.7 C-8.76,50.01 -6.9,48.57 -6.9,45.72 C-6.9,42.54 -9.6,40.5 -13.71,40.5 L-22.38,40.5 L-22.38,61.5 Z M-20.82,60.06 L-20.82,51.63 L-13.71,51.63 C-9.57,51.63 -7.32,53.13 -7.32,55.71 C-7.32,58.41 -9.6,60.06 -13.2,60.06 L-20.82,60.06 Z M-20.82,50.19 L-20.82,41.94 L-13.74,41.94 C-10.38,41.94 -8.49,43.5 -8.49,45.81 C-8.49,48.66 -10.74,50.19 -13.89,50.19 L-20.82,50.19 Z M2.28,61.5 L16.17,61.5 L16.17,60.06 L3.84,60.06 L3.84,40.5 L2.28,40.5 L2.28,61.5 Z M32.25,61.86 C38.61,61.86 42.84,56.73 42.84,51 C42.84,45.21 38.67,40.14 32.31,40.14 C25.95,40.14 21.72,45.27 21.72,51 C21.72,56.79 25.89,61.86 32.25,61.86 L32.25,61.86 Z M32.31,60.45 C27.12,60.45 23.34,56.19 23.34,51 C23.34,45.75 27.06,41.55 32.25,41.55 C37.44,41.55 41.22,45.81 41.22,51 C41.22,56.25 37.5,60.45 32.31,60.45 L32.31,60.45 Z M60.78,61.86 C64.2,61.86 67.14,60.39 69.03,58.71 L69.03,50.61 L60.51,50.61 L60.51,52.05 L67.53,52.05 L67.53,58.08 C66,59.37 63.51,60.48 60.84,60.48 C55.23,60.48 51.84,56.43 51.84,51 C51.84,45.87 55.41,41.55 60.51,41.55 C63.69,41.55 65.61,42.63 67.26,44.07 L68.28,42.9 C66.18,41.16 64.02,40.14 60.6,40.14 C54.33,40.14 50.22,45.33 50.22,51 C50.22,56.97 54.15,61.86 60.78,61.86 L60.78,61.86 Z" id="BLOG" transform="translate(24.585000, 51.000000) rotate(-90.000000) translate(-24.585000, -51.000000) "></path>
            </g>
        </g>
    </g>
</svg>