<?xml version="1.0" encoding="UTF-8" standalone="no"?>
<svg width="22px" height="226px" viewBox="0 0 22 226" version="1.1" xmlns="http://www.w3.org/2000/svg" xmlns:xlink="http://www.w3.org/1999/xlink">
    <!-- Generator: Sketch 3.8.1 (29687) - http://www.bohemiancoding.com/sketch -->
    <title>BOOKMARKS</title>
    <desc>Created with Sketch.</desc>
    <defs></defs>
    <g id="Page-1" stroke="none" stroke-width="1" fill="none" fill-rule="evenodd">
        <g id="Profile" transform="translate(-69.000000, -181.000000)" fill="#000000">
            <path d="M-33.38,303.5 L-24.26,303.5 C-19.73,303.5 -16.73,301.28 -16.73,297.77 C-16.73,294.8 -18.95,293.36 -21.47,292.7 C-19.76,292.01 -17.9,290.57 -17.9,287.72 C-17.9,284.54 -20.6,282.5 -24.71,282.5 L-33.38,282.5 L-33.38,303.5 Z M-31.82,302.06 L-31.82,293.63 L-24.71,293.63 C-20.57,293.63 -18.32,295.13 -18.32,297.71 C-18.32,300.41 -20.6,302.06 -24.2,302.06 L-31.82,302.06 Z M-31.82,292.19 L-31.82,283.94 L-24.74,283.94 C-21.38,283.94 -19.49,285.5 -19.49,287.81 C-19.49,290.66 -21.74,292.19 -24.89,292.19 L-31.82,292.19 Z M0.88,303.86 C7.24,303.86 11.47,298.73 11.47,293 C11.47,287.21 7.3,282.14 0.94,282.14 C-5.42,282.14 -9.65,287.27 -9.65,293 C-9.65,298.79 -5.48,303.86 0.88,303.86 L0.88,303.86 Z M0.94,302.45 C-4.25,302.45 -8.03,298.19 -8.03,293 C-8.03,287.75 -4.31,283.55 0.88,283.55 C6.07,283.55 9.85,287.81 9.85,293 C9.85,298.25 6.13,302.45 0.94,302.45 L0.94,302.45 Z M29.38,303.86 C35.74,303.86 39.97,298.73 39.97,293 C39.97,287.21 35.8,282.14 29.44,282.14 C23.08,282.14 18.85,287.27 18.85,293 C18.85,298.79 23.02,303.86 29.38,303.86 L29.38,303.86 Z M29.44,302.45 C24.25,302.45 20.47,298.19 20.47,293 C20.47,287.75 24.19,283.55 29.38,283.55 C34.57,283.55 38.35,287.81 38.35,293 C38.35,298.25 34.63,302.45 29.44,302.45 L29.44,302.45 Z M48.28,303.5 L49.84,303.5 L49.84,298.16 L55.06,292.88 L63.7,303.5 L65.74,303.5 L56.17,291.77 L65.35,282.5 L63.22,282.5 L49.84,296.3 L49.84,282.5 L48.28,282.5 L48.28,303.5 Z M72.73,303.5 L74.23,303.5 L74.23,285.26 L82.54,297.35 L82.66,297.35 L90.97,285.26 L90.97,303.5 L92.53,303.5 L92.53,282.5 L91.06,282.5 L82.63,294.92 L74.2,282.5 L72.73,282.5 L72.73,303.5 Z M99.97,303.5 L101.59,303.5 L104.26,297.62 L116.65,297.62 L119.32,303.5 L121.03,303.5 L111.25,282.35 L109.75,282.35 L99.97,303.5 Z M104.92,296.21 L110.47,284.06 L115.99,296.21 L104.92,296.21 Z M128.47,303.5 L130.03,303.5 L130.03,294.8 L136.9,294.8 L143.59,303.5 L145.57,303.5 L138.64,294.53 C142.18,294.05 144.79,292.04 144.79,288.53 C144.79,286.97 144.19,285.56 143.2,284.57 C141.94,283.31 139.87,282.5 137.29,282.5 L128.47,282.5 L128.47,303.5 Z M130.03,293.39 L130.03,283.94 L137.2,283.94 C141.01,283.94 143.23,285.71 143.23,288.53 C143.23,291.62 140.62,293.39 137.11,293.39 L130.03,293.39 Z M153.16,303.5 L154.72,303.5 L154.72,298.16 L159.94,292.88 L168.58,303.5 L170.62,303.5 L161.05,291.77 L170.23,282.5 L168.1,282.5 L154.72,296.3 L154.72,282.5 L153.16,282.5 L153.16,303.5 Z M184.42,303.8 C188.47,303.8 191.38,301.46 191.38,298.07 C191.38,294.95 189.34,293.21 184.48,292.22 C179.5,291.2 178.36,289.85 178.36,287.63 C178.36,285.38 180.4,283.61 183.49,283.61 C185.8,283.61 187.78,284.27 189.76,285.98 L190.75,284.75 C188.62,283.04 186.61,282.2 183.55,282.2 C179.65,282.2 176.8,284.6 176.8,287.72 C176.8,290.96 178.84,292.67 183.88,293.69 C188.65,294.65 189.82,295.94 189.82,298.16 C189.82,300.62 187.66,302.39 184.51,302.39 C181.42,302.39 179.29,301.4 176.98,299.27 L175.96,300.44 C178.48,302.69 181.06,303.8 184.42,303.8 L184.42,303.8 Z" id="BOOKMARKS" transform="translate(80.005000, 293.000000) rotate(-90.000000) translate(-80.005000, -293.000000) "></path>
        </g>
    </g>
</svg>