<?xml version="1.0" encoding="UTF-8" standalone="no"?>
<svg width="22px" height="225px" viewBox="0 0 22 225" version="1.1" xmlns="http://www.w3.org/2000/svg" xmlns:xlink="http://www.w3.org/1999/xlink">
    <!-- Generator: Sketch 3.8.1 (29687) - http://www.bohemiancoding.com/sketch -->
    <title>CATEGORIES</title>
    <desc>Created with Sketch.</desc>
    <defs></defs>
    <g id="Page-1" stroke="none" stroke-width="1" fill="none" fill-rule="evenodd">
        <g id="POP-UP-Categories" transform="translate(-59.000000, -180.000000)" fill="#000000">
            <path d="M-32.37,302.36 C-28.65,302.36 -26.25,300.89 -24.03,298.7 L-25.08,297.68 C-27.21,299.78 -29.28,300.95 -32.31,300.95 C-37.32,300.95 -41.19,296.81 -41.19,291.5 C-41.19,286.16 -37.38,282.05 -32.34,282.05 C-29.19,282.05 -27.09,283.37 -25.26,285.14 L-24.24,284.09 C-26.4,282.11 -28.56,280.64 -32.31,280.64 C-38.37,280.64 -42.81,285.56 -42.81,291.5 C-42.81,297.59 -38.37,302.36 -32.37,302.36 L-32.37,302.36 Z M-18.54,302 L-16.92,302 L-14.25,296.12 L-1.86,296.12 L0.81,302 L2.52,302 L-7.26,280.85 L-8.76,280.85 L-18.54,302 Z M-13.59,294.71 L-8.04,282.56 L-2.52,294.71 L-13.59,294.71 Z M13.08,302 L14.64,302 L14.64,282.44 L21.96,282.44 L21.96,281 L5.76,281 L5.76,282.44 L13.08,282.44 L13.08,302 Z M29.7,302 L44.79,302 L44.79,300.56 L31.26,300.56 L31.26,292.13 L43.29,292.13 L43.29,290.69 L31.26,290.69 L31.26,282.44 L44.64,282.44 L44.64,281 L29.7,281 L29.7,302 Z M62.43,302.36 C65.85,302.36 68.79,300.89 70.68,299.21 L70.68,291.11 L62.16,291.11 L62.16,292.55 L69.18,292.55 L69.18,298.58 C67.65,299.87 65.16,300.98 62.49,300.98 C56.88,300.98 53.49,296.93 53.49,291.5 C53.49,286.37 57.06,282.05 62.16,282.05 C65.34,282.05 67.26,283.13 68.91,284.57 L69.93,283.4 C67.83,281.66 65.67,280.64 62.25,280.64 C55.98,280.64 51.87,285.83 51.87,291.5 C51.87,297.47 55.8,302.36 62.43,302.36 L62.43,302.36 Z M88.92,302.36 C95.28,302.36 99.51,297.23 99.51,291.5 C99.51,285.71 95.34,280.64 88.98,280.64 C82.62,280.64 78.39,285.77 78.39,291.5 C78.39,297.29 82.56,302.36 88.92,302.36 L88.92,302.36 Z M88.98,300.95 C83.79,300.95 80.01,296.69 80.01,291.5 C80.01,286.25 83.73,282.05 88.92,282.05 C94.11,282.05 97.89,286.31 97.89,291.5 C97.89,296.75 94.17,300.95 88.98,300.95 L88.98,300.95 Z M107.82,302 L109.38,302 L109.38,293.3 L116.25,293.3 L122.94,302 L124.92,302 L117.99,293.03 C121.53,292.55 124.14,290.54 124.14,287.03 C124.14,285.47 123.54,284.06 122.55,283.07 C121.29,281.81 119.22,281 116.64,281 L107.82,281 L107.82,302 Z M109.38,291.89 L109.38,282.44 L116.55,282.44 C120.36,282.44 122.58,284.21 122.58,287.03 C122.58,290.12 119.97,291.89 116.46,291.89 L109.38,291.89 Z M132.72,302 L134.28,302 L134.28,281 L132.72,281 L132.72,302 Z M143.73,302 L158.82,302 L158.82,300.56 L145.29,300.56 L145.29,292.13 L157.32,292.13 L157.32,290.69 L145.29,290.69 L145.29,282.44 L158.67,282.44 L158.67,281 L143.73,281 L143.73,302 Z M173.94,302.3 C177.99,302.3 180.9,299.96 180.9,296.57 C180.9,293.45 178.86,291.71 174,290.72 C169.02,289.7 167.88,288.35 167.88,286.13 C167.88,283.88 169.92,282.11 173.01,282.11 C175.32,282.11 177.3,282.77 179.28,284.48 L180.27,283.25 C178.14,281.54 176.13,280.7 173.07,280.7 C169.17,280.7 166.32,283.1 166.32,286.22 C166.32,289.46 168.36,291.17 173.4,292.19 C178.17,293.15 179.34,294.44 179.34,296.66 C179.34,299.12 177.18,300.89 174.03,300.89 C170.94,300.89 168.81,299.9 166.5,297.77 L165.48,298.94 C168,301.19 170.58,302.3 173.94,302.3 L173.94,302.3 Z" id="CATEGORIES" transform="translate(70.050000, 291.500000) rotate(-90.000000) translate(-70.050000, -291.500000) "></path>
        </g>
    </g>
</svg>