<?xml version="1.0" encoding="UTF-8" standalone="no"?>
<svg width="22px" height="199px" viewBox="0 0 22 199" version="1.1" xmlns="http://www.w3.org/2000/svg" xmlns:xlink="http://www.w3.org/1999/xlink">
    <!-- Generator: Sketch 3.8.1 (29687) - http://www.bohemiancoding.com/sketch -->
    <title>COMMENTS</title>
    <desc>Created with Sketch.</desc>
    <defs></defs>
    <g id="Page-1" stroke="none" stroke-width="1" fill="none" fill-rule="evenodd">
        <g id="Article" transform="translate(-47.000000, -3950.000000)" fill="#000000">
            <g id="Comments" transform="translate(34.000000, 3941.000000)">
                <path d="M-65.37,118.36 C-61.65,118.36 -59.25,116.89 -57.03,114.7 L-58.08,113.68 C-60.21,115.78 -62.28,116.95 -65.31,116.95 C-70.32,116.95 -74.19,112.81 -74.19,107.5 C-74.19,102.16 -70.38,98.05 -65.34,98.05 C-62.19,98.05 -60.09,99.37 -58.26,101.14 L-57.24,100.09 C-59.4,98.11 -61.56,96.64 -65.31,96.64 C-71.37,96.64 -75.81,101.56 -75.81,107.5 C-75.81,113.59 -71.37,118.36 -65.37,118.36 L-65.37,118.36 Z M-40.74,118.36 C-34.38,118.36 -30.15,113.23 -30.15,107.5 C-30.15,101.71 -34.32,96.64 -40.68,96.64 C-47.04,96.64 -51.27,101.77 -51.27,107.5 C-51.27,113.29 -47.1,118.36 -40.74,118.36 L-40.74,118.36 Z M-40.68,116.95 C-45.87,116.95 -49.65,112.69 -49.65,107.5 C-49.65,102.25 -45.93,98.05 -40.74,98.05 C-35.55,98.05 -31.77,102.31 -31.77,107.5 C-31.77,112.75 -35.49,116.95 -40.68,116.95 L-40.68,116.95 Z M-21.84,118 L-20.34,118 L-20.34,99.76 L-12.03,111.85 L-11.91,111.85 L-3.6,99.76 L-3.6,118 L-2.04,118 L-2.04,97 L-3.51,97 L-11.94,109.42 L-20.37,97 L-21.84,97 L-21.84,118 Z M7.2,118 L8.7,118 L8.7,99.76 L17.01,111.85 L17.13,111.85 L25.44,99.76 L25.44,118 L27,118 L27,97 L25.53,97 L17.1,109.42 L8.67,97 L7.2,97 L7.2,118 Z M36.24,118 L51.33,118 L51.33,116.56 L37.8,116.56 L37.8,108.13 L49.83,108.13 L49.83,106.69 L37.8,106.69 L37.8,98.44 L51.18,98.44 L51.18,97 L36.24,97 L36.24,118 Z M59.34,118 L60.84,118 L60.84,99.34 L75.63,118 L76.8,118 L76.8,97 L75.3,97 L75.3,115.27 L60.81,97 L59.34,97 L59.34,118 Z M91.86,118 L93.42,118 L93.42,98.44 L100.74,98.44 L100.74,97 L84.54,97 L84.54,98.44 L91.86,98.44 L91.86,118 Z M115.14,118.3 C119.19,118.3 122.1,115.96 122.1,112.57 C122.1,109.45 120.06,107.71 115.2,106.72 C110.22,105.7 109.08,104.35 109.08,102.13 C109.08,99.88 111.12,98.11 114.21,98.11 C116.52,98.11 118.5,98.77 120.48,100.48 L121.47,99.25 C119.34,97.54 117.33,96.7 114.27,96.7 C110.37,96.7 107.52,99.1 107.52,102.22 C107.52,105.46 109.56,107.17 114.6,108.19 C119.37,109.15 120.54,110.44 120.54,112.66 C120.54,115.12 118.38,116.89 115.23,116.89 C112.14,116.89 110.01,115.9 107.7,113.77 L106.68,114.94 C109.2,117.19 111.78,118.3 115.14,118.3 L115.14,118.3 Z" id="COMMENTS" transform="translate(24.150000, 107.500000) rotate(-90.000000) translate(-24.150000, -107.500000) "></path>
            </g>
        </g>
    </g>
</svg>