<?xml version="1.0" encoding="UTF-8" standalone="no"?>
<svg width="23px" height="164px" viewBox="0 0 23 164" version="1.1" xmlns="http://www.w3.org/2000/svg" xmlns:xlink="http://www.w3.org/1999/xlink">
    <!-- Generator: Sketch 3.8.1 (29687) - http://www.bohemiancoding.com/sketch -->
    <title>COURSES</title>
    <desc>Created with Sketch.</desc>
    <defs></defs>
    <g id="Page-1" stroke="none" stroke-width="1" fill="none" fill-rule="evenodd">
        <g id="Index" transform="translate(-70.000000, -872.000000)" fill="#000000">
            <g id="Course" transform="translate(56.000000, 818.000000)">
                <path d="M-46.87,145.86 C-43.15,145.86 -40.75,144.39 -38.53,142.2 L-39.58,141.18 C-41.71,143.28 -43.78,144.45 -46.81,144.45 C-51.82,144.45 -55.69,140.31 -55.69,135 C-55.69,129.66 -51.88,125.55 -46.84,125.55 C-43.69,125.55 -41.59,126.87 -39.76,128.64 L-38.74,127.59 C-40.9,125.61 -43.06,124.14 -46.81,124.14 C-52.87,124.14 -57.31,129.06 -57.31,135 C-57.31,141.09 -52.87,145.86 -46.87,145.86 L-46.87,145.86 Z M-22.24,145.86 C-15.88,145.86 -11.65,140.73 -11.65,135 C-11.65,129.21 -15.82,124.14 -22.18,124.14 C-28.54,124.14 -32.77,129.27 -32.77,135 C-32.77,140.79 -28.6,145.86 -22.24,145.86 L-22.24,145.86 Z M-22.18,144.45 C-27.37,144.45 -31.15,140.19 -31.15,135 C-31.15,129.75 -27.43,125.55 -22.24,125.55 C-17.05,125.55 -13.27,129.81 -13.27,135 C-13.27,140.25 -16.99,144.45 -22.18,144.45 L-22.18,144.45 Z M4.94,145.83 C10.04,145.83 13.55,142.62 13.55,136.59 L13.55,124.5 L11.99,124.5 L11.99,136.77 C11.99,141.84 9.26,144.42 5,144.42 C0.56,144.42 -2.11,141.57 -2.11,136.62 L-2.11,124.5 L-3.67,124.5 L-3.67,136.77 C-3.67,142.65 -0.1,145.83 4.94,145.83 L4.94,145.83 Z M22.46,145.5 L24.02,145.5 L24.02,136.8 L30.89,136.8 L37.58,145.5 L39.56,145.5 L32.63,136.53 C36.17,136.05 38.78,134.04 38.78,130.53 C38.78,128.97 38.18,127.56 37.19,126.57 C35.93,125.31 33.86,124.5 31.28,124.5 L22.46,124.5 L22.46,145.5 Z M24.02,135.39 L24.02,125.94 L31.19,125.94 C35,125.94 37.22,127.71 37.22,130.53 C37.22,133.62 34.61,135.39 31.1,135.39 L24.02,135.39 Z M54.26,145.8 C58.31,145.8 61.22,143.46 61.22,140.07 C61.22,136.95 59.18,135.21 54.32,134.22 C49.34,133.2 48.2,131.85 48.2,129.63 C48.2,127.38 50.24,125.61 53.33,125.61 C55.64,125.61 57.62,126.27 59.6,127.98 L60.59,126.75 C58.46,125.04 56.45,124.2 53.39,124.2 C49.49,124.2 46.64,126.6 46.64,129.72 C46.64,132.96 48.68,134.67 53.72,135.69 C58.49,136.65 59.66,137.94 59.66,140.16 C59.66,142.62 57.5,144.39 54.35,144.39 C51.26,144.39 49.13,143.4 46.82,141.27 L45.8,142.44 C48.32,144.69 50.9,145.8 54.26,145.8 L54.26,145.8 Z M69.35,145.5 L84.44,145.5 L84.44,144.06 L70.91,144.06 L70.91,135.63 L82.94,135.63 L82.94,134.19 L70.91,134.19 L70.91,125.94 L84.29,125.94 L84.29,124.5 L69.35,124.5 L69.35,145.5 Z M99.56,145.8 C103.61,145.8 106.52,143.46 106.52,140.07 C106.52,136.95 104.48,135.21 99.62,134.22 C94.64,133.2 93.5,131.85 93.5,129.63 C93.5,127.38 95.54,125.61 98.63,125.61 C100.94,125.61 102.92,126.27 104.9,127.98 L105.89,126.75 C103.76,125.04 101.75,124.2 98.69,124.2 C94.79,124.2 91.94,126.6 91.94,129.72 C91.94,132.96 93.98,134.67 99.02,135.69 C103.79,136.65 104.96,137.94 104.96,140.16 C104.96,142.62 102.8,144.39 99.65,144.39 C96.56,144.39 94.43,143.4 92.12,141.27 L91.1,142.44 C93.62,144.69 96.2,145.8 99.56,145.8 L99.56,145.8 Z" id="COURSES" transform="translate(25.610000, 135.000000) rotate(-90.000000) translate(-25.610000, -135.000000) "></path>
            </g>
        </g>
    </g>
</svg>