<?xml version="1.0" encoding="UTF-8" standalone="no"?>
<svg width="22px" height="243px" viewBox="0 0 22 243" version="1.1" xmlns="http://www.w3.org/2000/svg" xmlns:xlink="http://www.w3.org/1999/xlink">
    <!-- Generator: Sketch 3.8.1 (29687) - http://www.bohemiancoding.com/sketch -->
    <title>EDIT PROFILE</title>
    <desc>Created with Sketch.</desc>
    <defs></defs>
    <g id="Page-1" stroke="none" stroke-width="1" fill="none" fill-rule="evenodd">
        <g id="Profile-edit" transform="translate(-69.000000, -179.000000)" fill="#000000">
            <path d="M-41.88,310 L-26.79,310 L-26.79,308.56 L-40.32,308.56 L-40.32,300.13 L-28.29,300.13 L-28.29,298.69 L-40.32,298.69 L-40.32,290.44 L-26.94,290.44 L-26.94,289 L-41.88,289 L-41.88,310 Z M-18.78,310 L-11.79,310 C-5.19,310 -0.63,305.41 -0.63,299.5 C-0.63,293.53 -5.19,289 -11.79,289 L-18.78,289 L-18.78,310 Z M-17.22,308.56 L-17.22,290.44 L-11.79,290.44 C-5.94,290.44 -2.25,294.52 -2.25,299.5 C-2.25,304.57 -5.94,308.56 -11.79,308.56 L-17.22,308.56 Z M7.89,310 L9.45,310 L9.45,289 L7.89,289 L7.89,310 Z M24.72,310 L26.28,310 L26.28,290.44 L33.6,290.44 L33.6,289 L17.4,289 L17.4,290.44 L24.72,290.44 L24.72,310 Z M53.34,310 L54.9,310 L54.9,302.17 L60.57,302.17 C64.95,302.17 68.76,299.89 68.76,295.48 C68.76,291.37 65.58,289 60.96,289 L53.34,289 L53.34,310 Z M54.9,300.73 L54.9,290.44 L60.84,290.44 C64.62,290.44 67.2,292.18 67.2,295.51 C67.2,298.69 64.56,300.73 60.66,300.73 L54.9,300.73 Z M76.38,310 L77.94,310 L77.94,301.3 L84.81,301.3 L91.5,310 L93.48,310 L86.55,301.03 C90.09,300.55 92.7,298.54 92.7,295.03 C92.7,293.47 92.1,292.06 91.11,291.07 C89.85,289.81 87.78,289 85.2,289 L76.38,289 L76.38,310 Z M77.94,299.89 L77.94,290.44 L85.11,290.44 C88.92,290.44 91.14,292.21 91.14,295.03 C91.14,298.12 88.53,299.89 85.02,299.89 L77.94,299.89 Z M110.67,310.36 C117.03,310.36 121.26,305.23 121.26,299.5 C121.26,293.71 117.09,288.64 110.73,288.64 C104.37,288.64 100.14,293.77 100.14,299.5 C100.14,305.29 104.31,310.36 110.67,310.36 L110.67,310.36 Z M110.73,308.95 C105.54,308.95 101.76,304.69 101.76,299.5 C101.76,294.25 105.48,290.05 110.67,290.05 C115.86,290.05 119.64,294.31 119.64,299.5 C119.64,304.75 115.92,308.95 110.73,308.95 L110.73,308.95 Z M129.57,310 L131.13,310 L131.13,300.49 L143.01,300.49 L143.01,299.05 L131.13,299.05 L131.13,290.44 L144.36,290.44 L144.36,289 L129.57,289 L129.57,310 Z M152.46,310 L154.02,310 L154.02,289 L152.46,289 L152.46,310 Z M163.47,310 L177.36,310 L177.36,308.56 L165.03,308.56 L165.03,289 L163.47,289 L163.47,310 Z M185.04,310 L200.13,310 L200.13,308.56 L186.6,308.56 L186.6,300.13 L198.63,300.13 L198.63,298.69 L186.6,298.69 L186.6,290.44 L199.98,290.44 L199.98,289 L185.04,289 L185.04,310 Z" id="EDIT-PROFILE" transform="translate(80.070000, 299.500000) rotate(-90.000000) translate(-80.070000, -299.500000) "></path>
        </g>
    </g>
</svg>