<?xml version="1.0" encoding="UTF-8" standalone="no"?>
<svg width="23px" height="69px" viewBox="0 0 23 69" version="1.1" xmlns="http://www.w3.org/2000/svg" xmlns:xlink="http://www.w3.org/1999/xlink">
    <!-- Generator: Sketch 3.8.1 (29687) - http://www.bohemiancoding.com/sketch -->
    <title>FOR</title>
    <desc>Created with Sketch.</desc>
    <defs></defs>
    <g id="Page-1" stroke="none" stroke-width="1" fill="none" fill-rule="evenodd">
        <g id="Course-typical" transform="translate(-70.000000, -1557.000000)" fill="#000000">
            <g id="For" transform="translate(56.000000, 1552.000000)">
                <path d="M-9.38,49.5 L-7.82,49.5 L-7.82,39.99 L4.06,39.99 L4.06,38.55 L-7.82,38.55 L-7.82,29.94 L5.41,29.94 L5.41,28.5 L-9.38,28.5 L-9.38,49.5 Z M22.3,49.86 C28.66,49.86 32.89,44.73 32.89,39 C32.89,33.21 28.72,28.14 22.36,28.14 C16,28.14 11.77,33.27 11.77,39 C11.77,44.79 15.94,49.86 22.3,49.86 L22.3,49.86 Z M22.36,48.45 C17.17,48.45 13.39,44.19 13.39,39 C13.39,33.75 17.11,29.55 22.3,29.55 C27.49,29.55 31.27,33.81 31.27,39 C31.27,44.25 27.55,48.45 22.36,48.45 L22.36,48.45 Z M41.2,49.5 L42.76,49.5 L42.76,40.8 L49.63,40.8 L56.32,49.5 L58.3,49.5 L51.37,40.53 C54.91,40.05 57.52,38.04 57.52,34.53 C57.52,32.97 56.92,31.56 55.93,30.57 C54.67,29.31 52.6,28.5 50.02,28.5 L41.2,28.5 L41.2,49.5 Z M42.76,39.39 L42.76,29.94 L49.93,29.94 C53.74,29.94 55.96,31.71 55.96,34.53 C55.96,37.62 53.35,39.39 49.84,39.39 L42.76,39.39 Z" id="FOR" transform="translate(25.195000, 39.000000) rotate(-90.000000) translate(-25.195000, -39.000000) "></path>
            </g>
        </g>
    </g>
</svg>