<?xml version="1.0" encoding="UTF-8" standalone="no"?>
<svg width="23px" height="158px" viewBox="0 0 23 158" version="1.1" xmlns="http://www.w3.org/2000/svg" xmlns:xlink="http://www.w3.org/1999/xlink">
    <!-- Generator: Sketch 3.8.1 (29687) - http://www.bohemiancoding.com/sketch -->
    <title>HOTTEST</title>
    <desc>Created with Sketch.</desc>
    <defs></defs>
    <g id="Page-1" stroke="none" stroke-width="1" fill="none" fill-rule="evenodd">
        <g id="Events" transform="translate(-70.000000, -240.000000)" fill="#000000">
            <g id="Hottest" transform="translate(56.000000, 181.000000)">
                <path d="M-53.88,148 L-52.32,148 L-52.32,138.16 L-38.88,138.16 L-38.88,148 L-37.32,148 L-37.32,127 L-38.88,127 L-38.88,136.72 L-52.32,136.72 L-52.32,127 L-53.88,127 L-53.88,148 Z M-18.48,148.36 C-12.12,148.36 -7.89,143.23 -7.89,137.5 C-7.89,131.71 -12.06,126.64 -18.42,126.64 C-24.78,126.64 -29.01,131.77 -29.01,137.5 C-29.01,143.29 -24.84,148.36 -18.48,148.36 L-18.48,148.36 Z M-18.42,146.95 C-23.61,146.95 -27.39,142.69 -27.39,137.5 C-27.39,132.25 -23.67,128.05 -18.48,128.05 C-13.29,128.05 -9.51,132.31 -9.51,137.5 C-9.51,142.75 -13.23,146.95 -18.42,146.95 L-18.42,146.95 Z M4.59,148 L6.15,148 L6.15,128.44 L13.47,128.44 L13.47,127 L-2.73,127 L-2.73,128.44 L4.59,128.44 L4.59,148 Z M27.03,148 L28.59,148 L28.59,128.44 L35.91,128.44 L35.91,127 L19.71,127 L19.71,128.44 L27.03,128.44 L27.03,148 Z M43.65,148 L58.74,148 L58.74,146.56 L45.21,146.56 L45.21,138.13 L57.24,138.13 L57.24,136.69 L45.21,136.69 L45.21,128.44 L58.59,128.44 L58.59,127 L43.65,127 L43.65,148 Z M73.86,148.3 C77.91,148.3 80.82,145.96 80.82,142.57 C80.82,139.45 78.78,137.71 73.92,136.72 C68.94,135.7 67.8,134.35 67.8,132.13 C67.8,129.88 69.84,128.11 72.93,128.11 C75.24,128.11 77.22,128.77 79.2,130.48 L80.19,129.25 C78.06,127.54 76.05,126.7 72.99,126.7 C69.09,126.7 66.24,129.1 66.24,132.22 C66.24,135.46 68.28,137.17 73.32,138.19 C78.09,139.15 79.26,140.44 79.26,142.66 C79.26,145.12 77.1,146.89 73.95,146.89 C70.86,146.89 68.73,145.9 66.42,143.77 L65.4,144.94 C67.92,147.19 70.5,148.3 73.86,148.3 L73.86,148.3 Z M94.32,148 L95.88,148 L95.88,128.44 L103.2,128.44 L103.2,127 L87,127 L87,128.44 L94.32,128.44 L94.32,148 Z" id="HOTTEST" transform="translate(25.470000, 137.500000) rotate(-90.000000) translate(-25.470000, -137.500000) "></path>
            </g>
        </g>
    </g>
</svg>