<?xml version="1.0" encoding="UTF-8" standalone="no"?>
<svg width="22px" height="74px" viewBox="0 0 22 74" version="1.1" xmlns="http://www.w3.org/2000/svg" xmlns:xlink="http://www.w3.org/1999/xlink">
    <!-- Generator: Sketch 3.8.1 (29687) - http://www.bohemiancoding.com/sketch -->
    <title>LIVE</title>
    <desc>Created with Sketch.</desc>
    <defs></defs>
    <g id="Page-1" stroke="none" stroke-width="1" fill="none" fill-rule="evenodd">
        <g id="Стрим" transform="translate(-69.000000, -179.000000)" fill="#000000">
            <path d="M43.62,226.5 L57.51,226.5 L57.51,225.06 L45.18,225.06 L45.18,205.5 L43.62,205.5 L43.62,226.5 Z M65.4,226.5 L66.96,226.5 L66.96,205.5 L65.4,205.5 L65.4,226.5 Z M83.85,226.65 L85.23,226.65 L94.47,205.5 L92.82,205.5 L84.57,224.82 L76.35,205.5 L74.61,205.5 L83.85,226.65 Z M101.91,226.5 L117,226.5 L117,225.06 L103.47,225.06 L103.47,216.63 L115.5,216.63 L115.5,215.19 L103.47,215.19 L103.47,206.94 L116.85,206.94 L116.85,205.5 L101.91,205.5 L101.91,226.5 Z" id="LIVE" transform="translate(80.310000, 216.075000) rotate(-90.000000) translate(-80.310000, -216.075000) "></path>
        </g>
    </g>
</svg>