<?xml version="1.0" encoding="UTF-8" standalone="no"?>
<svg width="22px" height="70px" viewBox="0 0 22 70" version="1.1" xmlns="http://www.w3.org/2000/svg" xmlns:xlink="http://www.w3.org/1999/xlink">
    <!-- Generator: Sketch 3.8.1 (29687) - http://www.bohemiancoding.com/sketch -->
    <title>OLD</title>
    <desc>Created with Sketch.</desc>
    <defs></defs>
    <g id="Page-1" stroke="none" stroke-width="1" fill="none" fill-rule="evenodd">
        <g id="Events" transform="translate(-70.000000, -1262.000000)" fill="#000000">
            <g id="old" transform="translate(56.000000, 1256.000000)">
                <path d="M-0.28,50.36 C6.08,50.36 10.31,45.23 10.31,39.5 C10.31,33.71 6.14,28.64 -0.22,28.64 C-6.58,28.64 -10.81,33.77 -10.81,39.5 C-10.81,45.29 -6.64,50.36 -0.28,50.36 L-0.28,50.36 Z M-0.22,48.95 C-5.41,48.95 -9.19,44.69 -9.19,39.5 C-9.19,34.25 -5.47,30.05 -0.28,30.05 C4.91,30.05 8.69,34.31 8.69,39.5 C8.69,44.75 4.97,48.95 -0.22,48.95 L-0.22,48.95 Z M18.62,50 L32.51,50 L32.51,48.56 L20.18,48.56 L20.18,29 L18.62,29 L18.62,50 Z M40.19,50 L47.18,50 C53.78,50 58.34,45.41 58.34,39.5 C58.34,33.53 53.78,29 47.18,29 L40.19,29 L40.19,50 Z M41.75,48.56 L41.75,30.44 L47.18,30.44 C53.03,30.44 56.72,34.52 56.72,39.5 C56.72,44.57 53.03,48.56 47.18,48.56 L41.75,48.56 Z" id="OLD" transform="translate(24.860000, 39.500000) rotate(-90.000000) translate(-24.860000, -39.500000) "></path>
            </g>
        </g>
    </g>
</svg>