<?xml version="1.0" encoding="UTF-8" standalone="no"?>
<svg width="23px" height="112px" viewBox="0 0 23 112" version="1.1" xmlns="http://www.w3.org/2000/svg" xmlns:xlink="http://www.w3.org/1999/xlink">
    <!-- Generator: Sketch 3.8.1 (29687) - http://www.bohemiancoding.com/sketch -->
    <title>PLACE</title>
    <desc>Created with Sketch.</desc>
    <defs></defs>
    <g id="Page-1" stroke="none" stroke-width="1" fill="none" fill-rule="evenodd">
        <g id="About" transform="translate(-69.000000, -2199.000000)" fill="#000000">
            <g id="School" transform="translate(56.000000, 2188.000000)">
                <path d="M-31.38,76.5 L-29.82,76.5 L-29.82,68.67 L-24.15,68.67 C-19.77,68.67 -15.96,66.39 -15.96,61.98 C-15.96,57.87 -19.14,55.5 -23.76,55.5 L-31.38,55.5 L-31.38,76.5 Z M-29.82,67.23 L-29.82,56.94 L-23.88,56.94 C-20.1,56.94 -17.52,58.68 -17.52,62.01 C-17.52,65.19 -20.16,67.23 -24.06,67.23 L-29.82,67.23 Z M-8.34,76.5 L5.55,76.5 L5.55,75.06 L-6.78,75.06 L-6.78,55.5 L-8.34,55.5 L-8.34,76.5 Z M11.43,76.5 L13.05,76.5 L15.72,70.62 L28.11,70.62 L30.78,76.5 L32.49,76.5 L22.71,55.35 L21.21,55.35 L11.43,76.5 Z M16.38,69.21 L21.93,57.06 L27.45,69.21 L16.38,69.21 Z M48.24,76.86 C51.96,76.86 54.36,75.39 56.58,73.2 L55.53,72.18 C53.4,74.28 51.33,75.45 48.3,75.45 C43.29,75.45 39.42,71.31 39.42,66 C39.42,60.66 43.23,56.55 48.27,56.55 C51.42,56.55 53.52,57.87 55.35,59.64 L56.37,58.59 C54.21,56.61 52.05,55.14 48.3,55.14 C42.24,55.14 37.8,60.06 37.8,66 C37.8,72.09 42.24,76.86 48.24,76.86 L48.24,76.86 Z M63.87,76.5 L78.96,76.5 L78.96,75.06 L65.43,75.06 L65.43,66.63 L77.46,66.63 L77.46,65.19 L65.43,65.19 L65.43,56.94 L78.81,56.94 L78.81,55.5 L63.87,55.5 L63.87,76.5 Z" id="PLACE" transform="translate(24.735000, 66.000000) rotate(-90.000000) translate(-24.735000, -66.000000) "></path>
            </g>
        </g>
    </g>
</svg>