<?xml version="1.0" encoding="UTF-8" standalone="no"?>
<svg width="22px" height="162px" viewBox="0 0 22 162" version="1.1" xmlns="http://www.w3.org/2000/svg" xmlns:xlink="http://www.w3.org/1999/xlink">
    <!-- Generator: Sketch 3.8.1 (29687) - http://www.bohemiancoding.com/sketch -->
    <title>PROCESS</title>
    <desc>Created with Sketch.</desc>
    <defs></defs>
    <g id="Page-1" stroke="none" stroke-width="1" fill="none" fill-rule="evenodd">
        <g id="About" transform="translate(-70.000000, -597.000000)" fill="#000000">
            <g id="Process" transform="translate(56.000000, 592.000000)">
                <path d="M-56.38,95.5 L-54.82,95.5 L-54.82,87.67 L-49.15,87.67 C-44.77,87.67 -40.96,85.39 -40.96,80.98 C-40.96,76.87 -44.14,74.5 -48.76,74.5 L-56.38,74.5 L-56.38,95.5 Z M-54.82,86.23 L-54.82,75.94 L-48.88,75.94 C-45.1,75.94 -42.52,77.68 -42.52,81.01 C-42.52,84.19 -45.16,86.23 -49.06,86.23 L-54.82,86.23 Z M-33.34,95.5 L-31.78,95.5 L-31.78,86.8 L-24.91,86.8 L-18.22,95.5 L-16.24,95.5 L-23.17,86.53 C-19.63,86.05 -17.02,84.04 -17.02,80.53 C-17.02,78.97 -17.62,77.56 -18.61,76.57 C-19.87,75.31 -21.94,74.5 -24.52,74.5 L-33.34,74.5 L-33.34,95.5 Z M-31.78,85.39 L-31.78,75.94 L-24.61,75.94 C-20.8,75.94 -18.58,77.71 -18.58,80.53 C-18.58,83.62 -21.19,85.39 -24.7,85.39 L-31.78,85.39 Z M0.95,95.86 C7.31,95.86 11.54,90.73 11.54,85 C11.54,79.21 7.37,74.14 1.01,74.14 C-5.35,74.14 -9.58,79.27 -9.58,85 C-9.58,90.79 -5.41,95.86 0.95,95.86 L0.95,95.86 Z M1.01,94.45 C-4.18,94.45 -7.96,90.19 -7.96,85 C-7.96,79.75 -4.24,75.55 0.95,75.55 C6.14,75.55 9.92,79.81 9.92,85 C9.92,90.25 6.2,94.45 1.01,94.45 L1.01,94.45 Z M29.36,95.86 C33.08,95.86 35.48,94.39 37.7,92.2 L36.65,91.18 C34.52,93.28 32.45,94.45 29.42,94.45 C24.41,94.45 20.54,90.31 20.54,85 C20.54,79.66 24.35,75.55 29.39,75.55 C32.54,75.55 34.64,76.87 36.47,78.64 L37.49,77.59 C35.33,75.61 33.17,74.14 29.42,74.14 C23.36,74.14 18.92,79.06 18.92,85 C18.92,91.09 23.36,95.86 29.36,95.86 L29.36,95.86 Z M44.99,95.5 L60.08,95.5 L60.08,94.06 L46.55,94.06 L46.55,85.63 L58.58,85.63 L58.58,84.19 L46.55,84.19 L46.55,75.94 L59.93,75.94 L59.93,74.5 L44.99,74.5 L44.99,95.5 Z M75.2,95.8 C79.25,95.8 82.16,93.46 82.16,90.07 C82.16,86.95 80.12,85.21 75.26,84.22 C70.28,83.2 69.14,81.85 69.14,79.63 C69.14,77.38 71.18,75.61 74.27,75.61 C76.58,75.61 78.56,76.27 80.54,77.98 L81.53,76.75 C79.4,75.04 77.39,74.2 74.33,74.2 C70.43,74.2 67.58,76.6 67.58,79.72 C67.58,82.96 69.62,84.67 74.66,85.69 C79.43,86.65 80.6,87.94 80.6,90.16 C80.6,92.62 78.44,94.39 75.29,94.39 C72.2,94.39 70.07,93.4 67.76,91.27 L66.74,92.44 C69.26,94.69 71.84,95.8 75.2,95.8 L75.2,95.8 Z M97.1,95.8 C101.15,95.8 104.06,93.46 104.06,90.07 C104.06,86.95 102.02,85.21 97.16,84.22 C92.18,83.2 91.04,81.85 91.04,79.63 C91.04,77.38 93.08,75.61 96.17,75.61 C98.48,75.61 100.46,76.27 102.44,77.98 L103.43,76.75 C101.3,75.04 99.29,74.2 96.23,74.2 C92.33,74.2 89.48,76.6 89.48,79.72 C89.48,82.96 91.52,84.67 96.56,85.69 C101.33,86.65 102.5,87.94 102.5,90.16 C102.5,92.62 100.34,94.39 97.19,94.39 C94.1,94.39 91.97,93.4 89.66,91.27 L88.64,92.44 C91.16,94.69 93.74,95.8 97.1,95.8 L97.1,95.8 Z" id="PROCESS" transform="translate(24.845000, 85.000000) rotate(-90.000000) translate(-24.845000, -85.000000) "></path>
            </g>
        </g>
    </g>
</svg>