<?xml version="1.0" encoding="UTF-8" standalone="no"?>
<svg width="22px" height="175px" viewBox="0 0 22 175" version="1.1" xmlns="http://www.w3.org/2000/svg" xmlns:xlink="http://www.w3.org/1999/xlink">
    <!-- Generator: Sketch 3.8.1 (29687) - http://www.bohemiancoding.com/sketch -->
    <title>PROGRAM</title>
    <desc>Created with Sketch.</desc>
    <defs></defs>
    <g id="Page-1" stroke="none" stroke-width="1" fill="none" fill-rule="evenodd">
        <g id="Стрим" transform="translate(-72.000000, -955.000000)" fill="#000000">
            <g id="Program" transform="translate(58.000000, 948.000000)">
                <path d="M-63.38,103.5 L-61.82,103.5 L-61.82,95.67 L-56.15,95.67 C-51.77,95.67 -47.96,93.39 -47.96,88.98 C-47.96,84.87 -51.14,82.5 -55.76,82.5 L-63.38,82.5 L-63.38,103.5 Z M-61.82,94.23 L-61.82,83.94 L-55.88,83.94 C-52.1,83.94 -49.52,85.68 -49.52,89.01 C-49.52,92.19 -52.16,94.23 -56.06,94.23 L-61.82,94.23 Z M-40.34,103.5 L-38.78,103.5 L-38.78,94.8 L-31.91,94.8 L-25.22,103.5 L-23.24,103.5 L-30.17,94.53 C-26.63,94.05 -24.02,92.04 -24.02,88.53 C-24.02,86.97 -24.62,85.56 -25.61,84.57 C-26.87,83.31 -28.94,82.5 -31.52,82.5 L-40.34,82.5 L-40.34,103.5 Z M-38.78,93.39 L-38.78,83.94 L-31.61,83.94 C-27.8,83.94 -25.58,85.71 -25.58,88.53 C-25.58,91.62 -28.19,93.39 -31.7,93.39 L-38.78,93.39 Z M-6.05,103.86 C0.31,103.86 4.54,98.73 4.54,93 C4.54,87.21 0.37,82.14 -5.99,82.14 C-12.35,82.14 -16.58,87.27 -16.58,93 C-16.58,98.79 -12.41,103.86 -6.05,103.86 L-6.05,103.86 Z M-5.99,102.45 C-11.18,102.45 -14.96,98.19 -14.96,93 C-14.96,87.75 -11.24,83.55 -6.05,83.55 C-0.86,83.55 2.92,87.81 2.92,93 C2.92,98.25 -0.8,102.45 -5.99,102.45 L-5.99,102.45 Z M22.48,103.86 C25.9,103.86 28.84,102.39 30.73,100.71 L30.73,92.61 L22.21,92.61 L22.21,94.05 L29.23,94.05 L29.23,100.08 C27.7,101.37 25.21,102.48 22.54,102.48 C16.93,102.48 13.54,98.43 13.54,93 C13.54,87.87 17.11,83.55 22.21,83.55 C25.39,83.55 27.31,84.63 28.96,86.07 L29.98,84.9 C27.88,83.16 25.72,82.14 22.3,82.14 C16.03,82.14 11.92,87.33 11.92,93 C11.92,98.97 15.85,103.86 22.48,103.86 L22.48,103.86 Z M39.37,103.5 L40.93,103.5 L40.93,94.8 L47.8,94.8 L54.49,103.5 L56.47,103.5 L49.54,94.53 C53.08,94.05 55.69,92.04 55.69,88.53 C55.69,86.97 55.09,85.56 54.1,84.57 C52.84,83.31 50.77,82.5 48.19,82.5 L39.37,82.5 L39.37,103.5 Z M40.93,93.39 L40.93,83.94 L48.1,83.94 C51.91,83.94 54.13,85.71 54.13,88.53 C54.13,91.62 51.52,93.39 48.01,93.39 L40.93,93.39 Z M62.26,103.5 L63.88,103.5 L66.55,97.62 L78.94,97.62 L81.61,103.5 L83.32,103.5 L73.54,82.35 L72.04,82.35 L62.26,103.5 Z M67.21,96.21 L72.76,84.06 L78.28,96.21 L67.21,96.21 Z M90.76,103.5 L92.26,103.5 L92.26,85.26 L100.57,97.35 L100.69,97.35 L109,85.26 L109,103.5 L110.56,103.5 L110.56,82.5 L109.09,82.5 L100.66,94.92 L92.23,82.5 L90.76,82.5 L90.76,103.5 Z" id="PROGRAM" transform="translate(25.150000, 93.000000) rotate(-90.000000) translate(-25.150000, -93.000000) "></path>
            </g>
        </g>
    </g>
</svg>