<?xml version="1.0" encoding="UTF-8" standalone="no"?>
<svg width="23px" height="204px" viewBox="0 0 23 204" version="1.1" xmlns="http://www.w3.org/2000/svg" xmlns:xlink="http://www.w3.org/1999/xlink">
    <!-- Generator: Sketch 3.8.1 (29687) - http://www.bohemiancoding.com/sketch -->
    <title>QUESTIONS</title>
    <desc>Created with Sketch.</desc>
    <defs></defs>
    <g id="Page-1" stroke="none" stroke-width="1" fill="none" fill-rule="evenodd">
        <g id="Video-course-not-bought" transform="translate(-69.000000, -3255.000000)" fill="#000000">
            <g id="Questions" transform="translate(-1.000000, 3176.000000)">
                <path d="M-1.06,191.13 L0.05,189.93 L-2.95,187.41 C-1.18,185.43 -0.19,182.79 -0.19,180 C-0.19,174.21 -4.36,169.14 -10.72,169.14 C-17.08,169.14 -21.31,174.27 -21.31,180 C-21.31,185.79 -17.14,190.86 -10.78,190.86 C-8.08,190.86 -5.77,189.96 -4,188.46 L-1.06,191.13 Z M-10.72,189.45 C-15.91,189.45 -19.69,185.19 -19.69,180 C-19.69,174.75 -15.97,170.55 -10.78,170.55 C-5.59,170.55 -1.81,174.81 -1.81,180 C-1.81,182.49 -2.65,184.74 -4.09,186.42 L-8.11,182.76 L-9.22,183.99 L-5.14,187.47 C-6.61,188.7 -8.53,189.45 -10.72,189.45 L-10.72,189.45 Z M16.4,190.83 C21.5,190.83 25.01,187.62 25.01,181.59 L25.01,169.5 L23.45,169.5 L23.45,181.77 C23.45,186.84 20.72,189.42 16.46,189.42 C12.02,189.42 9.35,186.57 9.35,181.62 L9.35,169.5 L7.79,169.5 L7.79,181.77 C7.79,187.65 11.36,190.83 16.4,190.83 L16.4,190.83 Z M33.92,190.5 L49.01,190.5 L49.01,189.06 L35.48,189.06 L35.48,180.63 L47.51,180.63 L47.51,179.19 L35.48,179.19 L35.48,170.94 L48.86,170.94 L48.86,169.5 L33.92,169.5 L33.92,190.5 Z M64.13,190.8 C68.18,190.8 71.09,188.46 71.09,185.07 C71.09,181.95 69.05,180.21 64.19,179.22 C59.21,178.2 58.07,176.85 58.07,174.63 C58.07,172.38 60.11,170.61 63.2,170.61 C65.51,170.61 67.49,171.27 69.47,172.98 L70.46,171.75 C68.33,170.04 66.32,169.2 63.26,169.2 C59.36,169.2 56.51,171.6 56.51,174.72 C56.51,177.96 58.55,179.67 63.59,180.69 C68.36,181.65 69.53,182.94 69.53,185.16 C69.53,187.62 67.37,189.39 64.22,189.39 C61.13,189.39 59,188.4 56.69,186.27 L55.67,187.44 C58.19,189.69 60.77,190.8 64.13,190.8 L64.13,190.8 Z M84.59,190.5 L86.15,190.5 L86.15,170.94 L93.47,170.94 L93.47,169.5 L77.27,169.5 L77.27,170.94 L84.59,170.94 L84.59,190.5 Z M101.42,190.5 L102.98,190.5 L102.98,169.5 L101.42,169.5 L101.42,190.5 Z M122.03,190.86 C128.39,190.86 132.62,185.73 132.62,180 C132.62,174.21 128.45,169.14 122.09,169.14 C115.73,169.14 111.5,174.27 111.5,180 C111.5,185.79 115.67,190.86 122.03,190.86 L122.03,190.86 Z M122.09,189.45 C116.9,189.45 113.12,185.19 113.12,180 C113.12,174.75 116.84,170.55 122.03,170.55 C127.22,170.55 131,174.81 131,180 C131,185.25 127.28,189.45 122.09,189.45 L122.09,189.45 Z M140.93,190.5 L142.43,190.5 L142.43,171.84 L157.22,190.5 L158.39,190.5 L158.39,169.5 L156.89,169.5 L156.89,187.77 L142.4,169.5 L140.93,169.5 L140.93,190.5 Z M174.74,190.8 C178.79,190.8 181.7,188.46 181.7,185.07 C181.7,181.95 179.66,180.21 174.8,179.22 C169.82,178.2 168.68,176.85 168.68,174.63 C168.68,172.38 170.72,170.61 173.81,170.61 C176.12,170.61 178.1,171.27 180.08,172.98 L181.07,171.75 C178.94,170.04 176.93,169.2 173.87,169.2 C169.97,169.2 167.12,171.6 167.12,174.72 C167.12,177.96 169.16,179.67 174.2,180.69 C178.97,181.65 180.14,182.94 180.14,185.16 C180.14,187.62 177.98,189.39 174.83,189.39 C171.74,189.39 169.61,188.4 167.3,186.27 L166.28,187.44 C168.8,189.69 171.38,190.8 174.74,190.8 L174.74,190.8 Z" id="QUESTIONS" transform="translate(81.200000, 180.135000) rotate(-90.000000) translate(-81.200000, -180.135000) "></path>
            </g>
        </g>
    </g>
</svg>