<?xml version="1.0" encoding="UTF-8" standalone="no"?>
<svg width="23px" height="199px" viewBox="0 0 23 199" version="1.1" xmlns="http://www.w3.org/2000/svg" xmlns:xlink="http://www.w3.org/1999/xlink">
    <!-- Generator: Sketch 3.8.1 (29687) - http://www.bohemiancoding.com/sketch -->
    <title>RECOMEND</title>
    <desc>Created with Sketch.</desc>
    <defs></defs>
    <g id="Page-1" stroke="none" stroke-width="1" fill="none" fill-rule="evenodd">
        <g id="Article" transform="translate(-69.000000, -4768.000000)" fill="#000000">
            <g id="Recommend" transform="translate(56.000000, 4762.000000)">
                <path d="M-75.38,114.5 L-73.82,114.5 L-73.82,105.8 L-66.95,105.8 L-60.26,114.5 L-58.28,114.5 L-65.21,105.53 C-61.67,105.05 -59.06,103.04 -59.06,99.53 C-59.06,97.97 -59.66,96.56 -60.65,95.57 C-61.91,94.31 -63.98,93.5 -66.56,93.5 L-75.38,93.5 L-75.38,114.5 Z M-73.82,104.39 L-73.82,94.94 L-66.65,94.94 C-62.84,94.94 -60.62,96.71 -60.62,99.53 C-60.62,102.62 -63.23,104.39 -66.74,104.39 L-73.82,104.39 Z M-50.69,114.5 L-35.6,114.5 L-35.6,113.06 L-49.13,113.06 L-49.13,104.63 L-37.1,104.63 L-37.1,103.19 L-49.13,103.19 L-49.13,94.94 L-35.75,94.94 L-35.75,93.5 L-50.69,93.5 L-50.69,114.5 Z M-18.08,114.86 C-14.36,114.86 -11.96,113.39 -9.74,111.2 L-10.79,110.18 C-12.92,112.28 -14.99,113.45 -18.02,113.45 C-23.03,113.45 -26.9,109.31 -26.9,104 C-26.9,98.66 -23.09,94.55 -18.05,94.55 C-14.9,94.55 -12.8,95.87 -10.97,97.64 L-9.95,96.59 C-12.11,94.61 -14.27,93.14 -18.02,93.14 C-24.08,93.14 -28.52,98.06 -28.52,104 C-28.52,110.09 -24.08,114.86 -18.08,114.86 L-18.08,114.86 Z M6.55,114.86 C12.91,114.86 17.14,109.73 17.14,104 C17.14,98.21 12.97,93.14 6.61,93.14 C0.25,93.14 -3.98,98.27 -3.98,104 C-3.98,109.79 0.19,114.86 6.55,114.86 L6.55,114.86 Z M6.61,113.45 C1.42,113.45 -2.36,109.19 -2.36,104 C-2.36,98.75 1.36,94.55 6.55,94.55 C11.74,94.55 15.52,98.81 15.52,104 C15.52,109.25 11.8,113.45 6.61,113.45 L6.61,113.45 Z M25.45,114.5 L26.95,114.5 L26.95,96.26 L35.26,108.35 L35.38,108.35 L43.69,96.26 L43.69,114.5 L45.25,114.5 L45.25,93.5 L43.78,93.5 L35.35,105.92 L26.92,93.5 L25.45,93.5 L25.45,114.5 Z M54.49,114.5 L69.58,114.5 L69.58,113.06 L56.05,113.06 L56.05,104.63 L68.08,104.63 L68.08,103.19 L56.05,103.19 L56.05,94.94 L69.43,94.94 L69.43,93.5 L54.49,93.5 L54.49,114.5 Z M77.59,114.5 L79.09,114.5 L79.09,95.84 L93.88,114.5 L95.05,114.5 L95.05,93.5 L93.55,93.5 L93.55,111.77 L79.06,93.5 L77.59,93.5 L77.59,114.5 Z M104.29,114.5 L111.28,114.5 C117.88,114.5 122.44,109.91 122.44,104 C122.44,98.03 117.88,93.5 111.28,93.5 L104.29,93.5 L104.29,114.5 Z M105.85,113.06 L105.85,94.94 L111.28,94.94 C117.13,94.94 120.82,99.02 120.82,104 C120.82,109.07 117.13,113.06 111.28,113.06 L105.85,113.06 Z" id="RECOMEND" transform="translate(24.625000, 104.000000) rotate(-90.000000) translate(-24.625000, -104.000000) "></path>
            </g>
        </g>
    </g>
</svg>