<?xml version="1.0" encoding="UTF-8" standalone="no"?>
<svg width="23px" height="171px" viewBox="0 0 23 171" version="1.1" xmlns="http://www.w3.org/2000/svg" xmlns:xlink="http://www.w3.org/1999/xlink">
    <!-- Generator: Sketch 3.8.1 (29687) - http://www.bohemiancoding.com/sketch -->
    <title>REGISTER</title>
    <desc>Created with Sketch.</desc>
    <defs></defs>
    <g id="Page-1" stroke="none" stroke-width="1" fill="none" fill-rule="evenodd">
        <g id="Course-typical" transform="translate(-70.000000, -2937.000000)" fill="#000000">
            <g id="Записаться-на-курс" transform="translate(56.000000, 2932.000000)">
                <path d="M-60.38,100 L-58.82,100 L-58.82,91.3 L-51.95,91.3 L-45.26,100 L-43.28,100 L-50.21,91.03 C-46.67,90.55 -44.06,88.54 -44.06,85.03 C-44.06,83.47 -44.66,82.06 -45.65,81.07 C-46.91,79.81 -48.98,79 -51.56,79 L-60.38,79 L-60.38,100 Z M-58.82,89.89 L-58.82,80.44 L-51.65,80.44 C-47.84,80.44 -45.62,82.21 -45.62,85.03 C-45.62,88.12 -48.23,89.89 -51.74,89.89 L-58.82,89.89 Z M-35.69,100 L-20.6,100 L-20.6,98.56 L-34.13,98.56 L-34.13,90.13 L-22.1,90.13 L-22.1,88.69 L-34.13,88.69 L-34.13,80.44 L-20.75,80.44 L-20.75,79 L-35.69,79 L-35.69,100 Z M-2.96,100.36 C0.46,100.36 3.4,98.89 5.29,97.21 L5.29,89.11 L-3.23,89.11 L-3.23,90.55 L3.79,90.55 L3.79,96.58 C2.26,97.87 -0.23,98.98 -2.9,98.98 C-8.51,98.98 -11.9,94.93 -11.9,89.5 C-11.9,84.37 -8.33,80.05 -3.23,80.05 C-0.05,80.05 1.87,81.13 3.52,82.57 L4.54,81.4 C2.44,79.66 0.28,78.64 -3.14,78.64 C-9.41,78.64 -13.52,83.83 -13.52,89.5 C-13.52,95.47 -9.59,100.36 -2.96,100.36 L-2.96,100.36 Z M14.14,100 L15.7,100 L15.7,79 L14.14,79 L14.14,100 Z M32.26,100.3 C36.31,100.3 39.22,97.96 39.22,94.57 C39.22,91.45 37.18,89.71 32.32,88.72 C27.34,87.7 26.2,86.35 26.2,84.13 C26.2,81.88 28.24,80.11 31.33,80.11 C33.64,80.11 35.62,80.77 37.6,82.48 L38.59,81.25 C36.46,79.54 34.45,78.7 31.39,78.7 C27.49,78.7 24.64,81.1 24.64,84.22 C24.64,87.46 26.68,89.17 31.72,90.19 C36.49,91.15 37.66,92.44 37.66,94.66 C37.66,97.12 35.5,98.89 32.35,98.89 C29.26,98.89 27.13,97.9 24.82,95.77 L23.8,96.94 C26.32,99.19 28.9,100.3 32.26,100.3 L32.26,100.3 Z M52.72,100 L54.28,100 L54.28,80.44 L61.6,80.44 L61.6,79 L45.4,79 L45.4,80.44 L52.72,80.44 L52.72,100 Z M69.34,100 L84.43,100 L84.43,98.56 L70.9,98.56 L70.9,90.13 L82.93,90.13 L82.93,88.69 L70.9,88.69 L70.9,80.44 L84.28,80.44 L84.28,79 L69.34,79 L69.34,100 Z M92.44,100 L94,100 L94,91.3 L100.87,91.3 L107.56,100 L109.54,100 L102.61,91.03 C106.15,90.55 108.76,88.54 108.76,85.03 C108.76,83.47 108.16,82.06 107.17,81.07 C105.91,79.81 103.84,79 101.26,79 L92.44,79 L92.44,100 Z M94,89.89 L94,80.44 L101.17,80.44 C104.98,80.44 107.2,82.21 107.2,85.03 C107.2,88.12 104.59,89.89 101.08,89.89 L94,89.89 Z" id="REGISTER" transform="translate(25.315000, 89.500000) rotate(-90.000000) translate(-25.315000, -89.500000) "></path>
            </g>
        </g>
    </g>
</svg>