<?xml version="1.0" encoding="UTF-8" standalone="no"?>
<svg width="23px" height="186px" viewBox="0 0 23 186" version="1.1" xmlns="http://www.w3.org/2000/svg" xmlns:xlink="http://www.w3.org/1999/xlink">
    <!-- Generator: Sketch 3.8.1 (29687) - http://www.bohemiancoding.com/sketch -->
    <title>RESPONSE</title>
    <desc>Created with Sketch.</desc>
    <defs></defs>
    <g id="Page-1" stroke="none" stroke-width="1" fill="none" fill-rule="evenodd">
        <g id="Video-course-not-bought" transform="translate(-70.000000, -2616.000000)" fill="#000000">
            <g id="Отзывы" transform="translate(56.000000, 2610.000000)">
                <path d="M-68.38,108.5 L-66.82,108.5 L-66.82,99.8 L-59.95,99.8 L-53.26,108.5 L-51.28,108.5 L-58.21,99.53 C-54.67,99.05 -52.06,97.04 -52.06,93.53 C-52.06,91.97 -52.66,90.56 -53.65,89.57 C-54.91,88.31 -56.98,87.5 -59.56,87.5 L-68.38,87.5 L-68.38,108.5 Z M-66.82,98.39 L-66.82,88.94 L-59.65,88.94 C-55.84,88.94 -53.62,90.71 -53.62,93.53 C-53.62,96.62 -56.23,98.39 -59.74,98.39 L-66.82,98.39 Z M-43.69,108.5 L-28.6,108.5 L-28.6,107.06 L-42.13,107.06 L-42.13,98.63 L-30.1,98.63 L-30.1,97.19 L-42.13,97.19 L-42.13,88.94 L-28.75,88.94 L-28.75,87.5 L-43.69,87.5 L-43.69,108.5 Z M-13.48,108.8 C-9.43,108.8 -6.52,106.46 -6.52,103.07 C-6.52,99.95 -8.56,98.21 -13.42,97.22 C-18.4,96.2 -19.54,94.85 -19.54,92.63 C-19.54,90.38 -17.5,88.61 -14.41,88.61 C-12.1,88.61 -10.12,89.27 -8.14,90.98 L-7.15,89.75 C-9.28,88.04 -11.29,87.2 -14.35,87.2 C-18.25,87.2 -21.1,89.6 -21.1,92.72 C-21.1,95.96 -19.06,97.67 -14.02,98.69 C-9.25,99.65 -8.08,100.94 -8.08,103.16 C-8.08,105.62 -10.24,107.39 -13.39,107.39 C-16.48,107.39 -18.61,106.4 -20.92,104.27 L-21.94,105.44 C-19.42,107.69 -16.84,108.8 -13.48,108.8 L-13.48,108.8 Z M1.61,108.5 L3.17,108.5 L3.17,100.67 L8.84,100.67 C13.22,100.67 17.03,98.39 17.03,93.98 C17.03,89.87 13.85,87.5 9.23,87.5 L1.61,87.5 L1.61,108.5 Z M3.17,99.23 L3.17,88.94 L9.11,88.94 C12.89,88.94 15.47,90.68 15.47,94.01 C15.47,97.19 12.83,99.23 8.93,99.23 L3.17,99.23 Z M34.25,108.86 C40.61,108.86 44.84,103.73 44.84,98 C44.84,92.21 40.67,87.14 34.31,87.14 C27.95,87.14 23.72,92.27 23.72,98 C23.72,103.79 27.89,108.86 34.25,108.86 L34.25,108.86 Z M34.31,107.45 C29.12,107.45 25.34,103.19 25.34,98 C25.34,92.75 29.06,88.55 34.25,88.55 C39.44,88.55 43.22,92.81 43.22,98 C43.22,103.25 39.5,107.45 34.31,107.45 L34.31,107.45 Z M53.15,108.5 L54.65,108.5 L54.65,89.84 L69.44,108.5 L70.61,108.5 L70.61,87.5 L69.11,87.5 L69.11,105.77 L54.62,87.5 L53.15,87.5 L53.15,108.5 Z M86.96,108.8 C91.01,108.8 93.92,106.46 93.92,103.07 C93.92,99.95 91.88,98.21 87.02,97.22 C82.04,96.2 80.9,94.85 80.9,92.63 C80.9,90.38 82.94,88.61 86.03,88.61 C88.34,88.61 90.32,89.27 92.3,90.98 L93.29,89.75 C91.16,88.04 89.15,87.2 86.09,87.2 C82.19,87.2 79.34,89.6 79.34,92.72 C79.34,95.96 81.38,97.67 86.42,98.69 C91.19,99.65 92.36,100.94 92.36,103.16 C92.36,105.62 90.2,107.39 87.05,107.39 C83.96,107.39 81.83,106.4 79.52,104.27 L78.5,105.44 C81.02,107.69 83.6,108.8 86.96,108.8 L86.96,108.8 Z M102.05,108.5 L117.14,108.5 L117.14,107.06 L103.61,107.06 L103.61,98.63 L115.64,98.63 L115.64,97.19 L103.61,97.19 L103.61,88.94 L116.99,88.94 L116.99,87.5 L102.05,87.5 L102.05,108.5 Z" id="RESPONSE" transform="translate(25.325000, 98.000000) rotate(-90.000000) translate(-25.325000, -98.000000) "></path>
            </g>
        </g>
    </g>
</svg>