<?xml version="1.0" encoding="UTF-8" standalone="no"?>
<svg width="23px" height="140px" viewBox="0 0 23 140" version="1.1" xmlns="http://www.w3.org/2000/svg" xmlns:xlink="http://www.w3.org/1999/xlink">
    <!-- Generator: Sketch 3.8.1 (29687) - http://www.bohemiancoding.com/sketch -->
    <title>SEARCH</title>
    <desc>Created with Sketch.</desc>
    <defs></defs>
    <g id="Page-1" stroke="none" stroke-width="1" fill="none" fill-rule="evenodd">
        <g id="POP-UP-Search-" transform="translate(-69.000000, -182.000000)" fill="#000000">
            <path d="M17.23,261.3 C21.28,261.3 24.19,258.96 24.19,255.57 C24.19,252.45 22.15,250.71 17.29,249.72 C12.31,248.7 11.17,247.35 11.17,245.13 C11.17,242.88 13.21,241.11 16.3,241.11 C18.61,241.11 20.59,241.77 22.57,243.48 L23.56,242.25 C21.43,240.54 19.42,239.7 16.36,239.7 C12.46,239.7 9.61,242.1 9.61,245.22 C9.61,248.46 11.65,250.17 16.69,251.19 C21.46,252.15 22.63,253.44 22.63,255.66 C22.63,258.12 20.47,259.89 17.32,259.89 C14.23,259.89 12.1,258.9 9.79,256.77 L8.77,257.94 C11.29,260.19 13.87,261.3 17.23,261.3 L17.23,261.3 Z M32.32,261 L47.41,261 L47.41,259.56 L33.88,259.56 L33.88,251.13 L45.91,251.13 L45.91,249.69 L33.88,249.69 L33.88,241.44 L47.26,241.44 L47.26,240 L32.32,240 L32.32,261 Z M53.62,261 L55.24,261 L57.91,255.12 L70.3,255.12 L72.97,261 L74.68,261 L64.9,239.85 L63.4,239.85 L53.62,261 Z M58.57,253.71 L64.12,241.56 L69.64,253.71 L58.57,253.71 Z M82.12,261 L83.68,261 L83.68,252.3 L90.55,252.3 L97.24,261 L99.22,261 L92.29,252.03 C95.83,251.55 98.44,249.54 98.44,246.03 C98.44,244.47 97.84,243.06 96.85,242.07 C95.59,240.81 93.52,240 90.94,240 L82.12,240 L82.12,261 Z M83.68,250.89 L83.68,241.44 L90.85,241.44 C94.66,241.44 96.88,243.21 96.88,246.03 C96.88,249.12 94.27,250.89 90.76,250.89 L83.68,250.89 Z M116.32,261.36 C120.04,261.36 122.44,259.89 124.66,257.7 L123.61,256.68 C121.48,258.78 119.41,259.95 116.38,259.95 C111.37,259.95 107.5,255.81 107.5,250.5 C107.5,245.16 111.31,241.05 116.35,241.05 C119.5,241.05 121.6,242.37 123.43,244.14 L124.45,243.09 C122.29,241.11 120.13,239.64 116.38,239.64 C110.32,239.64 105.88,244.56 105.88,250.5 C105.88,256.59 110.32,261.36 116.32,261.36 L116.32,261.36 Z M131.95,261 L133.51,261 L133.51,251.16 L146.95,251.16 L146.95,261 L148.51,261 L148.51,240 L146.95,240 L146.95,249.72 L133.51,249.72 L133.51,240 L131.95,240 L131.95,261 Z" id="SEARCH" transform="translate(80.200000, 250.500000) rotate(-90.000000) translate(-80.200000, -250.500000) "></path>
        </g>
    </g>
</svg>