<?xml version="1.0" encoding="UTF-8" standalone="no"?>
<svg width="22px" height="121px" viewBox="0 0 22 121" version="1.1" xmlns="http://www.w3.org/2000/svg" xmlns:xlink="http://www.w3.org/1999/xlink">
    <!-- Generator: Sketch 3.8.3 (29802) - http://www.bohemiancoding.com/sketch -->
    <title>SENSEI</title>
    <desc>Created with Sketch.</desc>
    <defs></defs>
    <g id="Page-1" stroke="none" stroke-width="1" fill="none" fill-rule="evenodd">
        <g id="Course-typical" transform="translate(-73.000000, -1253.000000)" fill="#000000">
            <g id="Sensei" transform="translate(73.000000, 1243.000000)">
                <path d="M-42.27,79.8 C-38.22,79.8 -35.31,77.46 -35.31,74.07 C-35.31,70.95 -37.35,69.21 -42.21,68.22 C-47.19,67.2 -48.33,65.85 -48.33,63.63 C-48.33,61.38 -46.29,59.61 -43.2,59.61 C-40.89,59.61 -38.91,60.27 -36.93,61.98 L-35.94,60.75 C-38.07,59.04 -40.08,58.2 -43.14,58.2 C-47.04,58.2 -49.89,60.6 -49.89,63.72 C-49.89,66.96 -47.85,68.67 -42.81,69.69 C-38.04,70.65 -36.87,71.94 -36.87,74.16 C-36.87,76.62 -39.03,78.39 -42.18,78.39 C-45.27,78.39 -47.4,77.4 -49.71,75.27 L-50.73,76.44 C-48.21,78.69 -45.63,79.8 -42.27,79.8 L-42.27,79.8 Z M-27.18,79.5 L-12.09,79.5 L-12.09,78.06 L-25.62,78.06 L-25.62,69.63 L-13.59,69.63 L-13.59,68.19 L-25.62,68.19 L-25.62,59.94 L-12.24,59.94 L-12.24,58.5 L-27.18,58.5 L-27.18,79.5 Z M-4.08,79.5 L-2.58,79.5 L-2.58,60.84 L12.21,79.5 L13.38,79.5 L13.38,58.5 L11.88,58.5 L11.88,76.77 L-2.61,58.5 L-4.08,58.5 L-4.08,79.5 Z M29.73,79.8 C33.78,79.8 36.69,77.46 36.69,74.07 C36.69,70.95 34.65,69.21 29.79,68.22 C24.81,67.2 23.67,65.85 23.67,63.63 C23.67,61.38 25.71,59.61 28.8,59.61 C31.11,59.61 33.09,60.27 35.07,61.98 L36.06,60.75 C33.93,59.04 31.92,58.2 28.86,58.2 C24.96,58.2 22.11,60.6 22.11,63.72 C22.11,66.96 24.15,68.67 29.19,69.69 C33.96,70.65 35.13,71.94 35.13,74.16 C35.13,76.62 32.97,78.39 29.82,78.39 C26.73,78.39 24.6,77.4 22.29,75.27 L21.27,76.44 C23.79,78.69 26.37,79.8 29.73,79.8 L29.73,79.8 Z M44.82,79.5 L59.91,79.5 L59.91,78.06 L46.38,78.06 L46.38,69.63 L58.41,69.63 L58.41,68.19 L46.38,68.19 L46.38,59.94 L59.76,59.94 L59.76,58.5 L44.82,58.5 L44.82,79.5 Z M68.13,79.5 L69.69,79.5 L69.69,58.5 L68.13,58.5 L68.13,79.5 Z" id="SENSEI" transform="translate(11.145000, 69.000000) rotate(-90.000000) translate(-11.145000, -69.000000) "></path>
            </g>
        </g>
    </g>
</svg>