<?xml version="1.0" encoding="UTF-8" standalone="no"?>
<svg width="23px" height="162px" viewBox="0 0 23 162" version="1.1" xmlns="http://www.w3.org/2000/svg" xmlns:xlink="http://www.w3.org/1999/xlink">
    <!-- Generator: Sketch 3.8.1 (29687) - http://www.bohemiancoding.com/sketch -->
    <title>SPEAKER</title>
    <desc>Created with Sketch.</desc>
    <defs></defs>
    <g id="Page-1" stroke="none" stroke-width="1" fill="none" fill-rule="evenodd">
        <g id="Event-smart" transform="translate(-68.000000, -540.000000)" fill="#000000">
            <g id="Speakers" transform="translate(55.000000, 535.000000)">
                <path d="M-48.27,95.8 C-44.22,95.8 -41.31,93.46 -41.31,90.07 C-41.31,86.95 -43.35,85.21 -48.21,84.22 C-53.19,83.2 -54.33,81.85 -54.33,79.63 C-54.33,77.38 -52.29,75.61 -49.2,75.61 C-46.89,75.61 -44.91,76.27 -42.93,77.98 L-41.94,76.75 C-44.07,75.04 -46.08,74.2 -49.14,74.2 C-53.04,74.2 -55.89,76.6 -55.89,79.72 C-55.89,82.96 -53.85,84.67 -48.81,85.69 C-44.04,86.65 -42.87,87.94 -42.87,90.16 C-42.87,92.62 -45.03,94.39 -48.18,94.39 C-51.27,94.39 -53.4,93.4 -55.71,91.27 L-56.73,92.44 C-54.21,94.69 -51.63,95.8 -48.27,95.8 L-48.27,95.8 Z M-33.18,95.5 L-31.62,95.5 L-31.62,87.67 L-25.95,87.67 C-21.57,87.67 -17.76,85.39 -17.76,80.98 C-17.76,76.87 -20.94,74.5 -25.56,74.5 L-33.18,74.5 L-33.18,95.5 Z M-31.62,86.23 L-31.62,75.94 L-25.68,75.94 C-21.9,75.94 -19.32,77.68 -19.32,81.01 C-19.32,84.19 -21.96,86.23 -25.86,86.23 L-31.62,86.23 Z M-10.14,95.5 L4.95,95.5 L4.95,94.06 L-8.58,94.06 L-8.58,85.63 L3.45,85.63 L3.45,84.19 L-8.58,84.19 L-8.58,75.94 L4.8,75.94 L4.8,74.5 L-10.14,74.5 L-10.14,95.5 Z M11.16,95.5 L12.78,95.5 L15.45,89.62 L27.84,89.62 L30.51,95.5 L32.22,95.5 L22.44,74.35 L20.94,74.35 L11.16,95.5 Z M16.11,88.21 L21.66,76.06 L27.18,88.21 L16.11,88.21 Z M39.66,95.5 L41.22,95.5 L41.22,90.16 L46.44,84.88 L55.08,95.5 L57.12,95.5 L47.55,83.77 L56.73,74.5 L54.6,74.5 L41.22,88.3 L41.22,74.5 L39.66,74.5 L39.66,95.5 Z M64.11,95.5 L79.2,95.5 L79.2,94.06 L65.67,94.06 L65.67,85.63 L77.7,85.63 L77.7,84.19 L65.67,84.19 L65.67,75.94 L79.05,75.94 L79.05,74.5 L64.11,74.5 L64.11,95.5 Z M87.21,95.5 L88.77,95.5 L88.77,86.8 L95.64,86.8 L102.33,95.5 L104.31,95.5 L97.38,86.53 C100.92,86.05 103.53,84.04 103.53,80.53 C103.53,78.97 102.93,77.56 101.94,76.57 C100.68,75.31 98.61,74.5 96.03,74.5 L87.21,74.5 L87.21,95.5 Z M88.77,85.39 L88.77,75.94 L95.94,75.94 C99.75,75.94 101.97,77.71 101.97,80.53 C101.97,83.62 99.36,85.39 95.85,85.39 L88.77,85.39 Z" id="SPEAKER" transform="translate(24.525000, 85.000000) rotate(-90.000000) translate(-24.525000, -85.000000) "></path>
            </g>
        </g>
    </g>
</svg>