<?xml version="1.0" encoding="UTF-8" standalone="no"?>
<svg width="23px" height="141px" viewBox="0 0 23 141" version="1.1" xmlns="http://www.w3.org/2000/svg" xmlns:xlink="http://www.w3.org/1999/xlink">
    <!-- Generator: Sketch 3.8.1 (29687) - http://www.bohemiancoding.com/sketch -->
    <title>STREAM</title>
    <desc>Created with Sketch.</desc>
    <defs></defs>
    <g id="Page-1" stroke="none" stroke-width="1" fill="none" fill-rule="evenodd">
        <g id="Event-typical-full" transform="translate(-68.000000, -1854.000000)" fill="#000000">
            <path d="M16.73,1933.8 C20.78,1933.8 23.69,1931.46 23.69,1928.07 C23.69,1924.95 21.65,1923.21 16.79,1922.22 C11.81,1921.2 10.67,1919.85 10.67,1917.63 C10.67,1915.38 12.71,1913.61 15.8,1913.61 C18.11,1913.61 20.09,1914.27 22.07,1915.98 L23.06,1914.75 C20.93,1913.04 18.92,1912.2 15.86,1912.2 C11.96,1912.2 9.11,1914.6 9.11,1917.72 C9.11,1920.96 11.15,1922.67 16.19,1923.69 C20.96,1924.65 22.13,1925.94 22.13,1928.16 C22.13,1930.62 19.97,1932.39 16.82,1932.39 C13.73,1932.39 11.6,1931.4 9.29,1929.27 L8.27,1930.44 C10.79,1932.69 13.37,1933.8 16.73,1933.8 L16.73,1933.8 Z M37.19,1933.5 L38.75,1933.5 L38.75,1913.94 L46.07,1913.94 L46.07,1912.5 L29.87,1912.5 L29.87,1913.94 L37.19,1913.94 L37.19,1933.5 Z M53.81,1933.5 L55.37,1933.5 L55.37,1924.8 L62.24,1924.8 L68.93,1933.5 L70.91,1933.5 L63.98,1924.53 C67.52,1924.05 70.13,1922.04 70.13,1918.53 C70.13,1916.97 69.53,1915.56 68.54,1914.57 C67.28,1913.31 65.21,1912.5 62.63,1912.5 L53.81,1912.5 L53.81,1933.5 Z M55.37,1923.39 L55.37,1913.94 L62.54,1913.94 C66.35,1913.94 68.57,1915.71 68.57,1918.53 C68.57,1921.62 65.96,1923.39 62.45,1923.39 L55.37,1923.39 Z M78.5,1933.5 L93.59,1933.5 L93.59,1932.06 L80.06,1932.06 L80.06,1923.63 L92.09,1923.63 L92.09,1922.19 L80.06,1922.19 L80.06,1913.94 L93.44,1913.94 L93.44,1912.5 L78.5,1912.5 L78.5,1933.5 Z M99.8,1933.5 L101.42,1933.5 L104.09,1927.62 L116.48,1927.62 L119.15,1933.5 L120.86,1933.5 L111.08,1912.35 L109.58,1912.35 L99.8,1933.5 Z M104.75,1926.21 L110.3,1914.06 L115.82,1926.21 L104.75,1926.21 Z M128.3,1933.5 L129.8,1933.5 L129.8,1915.26 L138.11,1927.35 L138.23,1927.35 L146.54,1915.26 L146.54,1933.5 L148.1,1933.5 L148.1,1912.5 L146.63,1912.5 L138.2,1924.92 L129.77,1912.5 L128.3,1912.5 L128.3,1933.5 Z" id="STREAM" transform="translate(79.745000, 1923.000000) rotate(-90.000000) translate(-79.745000, -1923.000000) "></path>
        </g>
    </g>
</svg>