<?xml version="1.0" encoding="UTF-8" standalone="no"?>
<svg width="23px" height="310px" viewBox="0 0 23 310" version="1.1" xmlns="http://www.w3.org/2000/svg" xmlns:xlink="http://www.w3.org/1999/xlink">
    <!-- Generator: Sketch 3.8.1 (29687) - http://www.bohemiancoding.com/sketch -->
    <title> STUDENT WORKS</title>
    <desc>Created with Sketch.</desc>
    <defs></defs>
    <g id="Page-1" stroke="none" stroke-width="1" fill="none" fill-rule="evenodd">
        <g id="Video-course-not-bought" transform="translate(-74.000000, -1792.000000)" fill="#000000">
            <g id="Students-work" transform="translate(-1.000000, 1702.000000)">
                <path d="M-60.27,254.8 C-56.22,254.8 -53.31,252.46 -53.31,249.07 C-53.31,245.95 -55.35,244.21 -60.21,243.22 C-65.19,242.2 -66.33,240.85 -66.33,238.63 C-66.33,236.38 -64.29,234.61 -61.2,234.61 C-58.89,234.61 -56.91,235.27 -54.93,236.98 L-53.94,235.75 C-56.07,234.04 -58.08,233.2 -61.14,233.2 C-65.04,233.2 -67.89,235.6 -67.89,238.72 C-67.89,241.96 -65.85,243.67 -60.81,244.69 C-56.04,245.65 -54.87,246.94 -54.87,249.16 C-54.87,251.62 -57.03,253.39 -60.18,253.39 C-63.27,253.39 -65.4,252.4 -67.71,250.27 L-68.73,251.44 C-66.21,253.69 -63.63,254.8 -60.27,254.8 L-60.27,254.8 Z M-39.81,254.5 L-38.25,254.5 L-38.25,234.94 L-30.93,234.94 L-30.93,233.5 L-47.13,233.5 L-47.13,234.94 L-39.81,234.94 L-39.81,254.5 Z M-14.91,254.83 C-9.81,254.83 -6.3,251.62 -6.3,245.59 L-6.3,233.5 L-7.86,233.5 L-7.86,245.77 C-7.86,250.84 -10.59,253.42 -14.85,253.42 C-19.29,253.42 -21.96,250.57 -21.96,245.62 L-21.96,233.5 L-23.52,233.5 L-23.52,245.77 C-23.52,251.65 -19.95,254.83 -14.91,254.83 L-14.91,254.83 Z M2.61,254.5 L9.6,254.5 C16.2,254.5 20.76,249.91 20.76,244 C20.76,238.03 16.2,233.5 9.6,233.5 L2.61,233.5 L2.61,254.5 Z M4.17,253.06 L4.17,234.94 L9.6,234.94 C15.45,234.94 19.14,239.02 19.14,244 C19.14,249.07 15.45,253.06 9.6,253.06 L4.17,253.06 Z M29.07,254.5 L44.16,254.5 L44.16,253.06 L30.63,253.06 L30.63,244.63 L42.66,244.63 L42.66,243.19 L30.63,243.19 L30.63,234.94 L44.01,234.94 L44.01,233.5 L29.07,233.5 L29.07,254.5 Z M52.17,254.5 L53.67,254.5 L53.67,235.84 L68.46,254.5 L69.63,254.5 L69.63,233.5 L68.13,233.5 L68.13,251.77 L53.64,233.5 L52.17,233.5 L52.17,254.5 Z M84.69,254.5 L86.25,254.5 L86.25,234.94 L93.57,234.94 L93.57,233.5 L77.37,233.5 L77.37,234.94 L84.69,234.94 L84.69,254.5 Z M119.31,254.65 L120.57,254.65 L126.72,236.41 L132.87,254.65 L134.13,254.65 L141.75,233.5 L140.13,233.5 L133.53,252.19 L127.38,233.44 L126.18,233.44 L120.03,252.19 L113.43,233.5 L111.69,233.5 L119.31,254.65 Z M157.92,254.86 C164.28,254.86 168.51,249.73 168.51,244 C168.51,238.21 164.34,233.14 157.98,233.14 C151.62,233.14 147.39,238.27 147.39,244 C147.39,249.79 151.56,254.86 157.92,254.86 L157.92,254.86 Z M157.98,253.45 C152.79,253.45 149.01,249.19 149.01,244 C149.01,238.75 152.73,234.55 157.92,234.55 C163.11,234.55 166.89,238.81 166.89,244 C166.89,249.25 163.17,253.45 157.98,253.45 L157.98,253.45 Z M176.82,254.5 L178.38,254.5 L178.38,245.8 L185.25,245.8 L191.94,254.5 L193.92,254.5 L186.99,245.53 C190.53,245.05 193.14,243.04 193.14,239.53 C193.14,237.97 192.54,236.56 191.55,235.57 C190.29,234.31 188.22,233.5 185.64,233.5 L176.82,233.5 L176.82,254.5 Z M178.38,244.39 L178.38,234.94 L185.55,234.94 C189.36,234.94 191.58,236.71 191.58,239.53 C191.58,242.62 188.97,244.39 185.46,244.39 L178.38,244.39 Z M201.51,254.5 L203.07,254.5 L203.07,249.16 L208.29,243.88 L216.93,254.5 L218.97,254.5 L209.4,242.77 L218.58,233.5 L216.45,233.5 L203.07,247.3 L203.07,233.5 L201.51,233.5 L201.51,254.5 Z M232.77,254.8 C236.82,254.8 239.73,252.46 239.73,249.07 C239.73,245.95 237.69,244.21 232.83,243.22 C227.85,242.2 226.71,240.85 226.71,238.63 C226.71,236.38 228.75,234.61 231.84,234.61 C234.15,234.61 236.13,235.27 238.11,236.98 L239.1,235.75 C236.97,234.04 234.96,233.2 231.9,233.2 C228,233.2 225.15,235.6 225.15,238.72 C225.15,241.96 227.19,243.67 232.23,244.69 C237,245.65 238.17,246.94 238.17,249.16 C238.17,251.62 236.01,253.39 232.86,253.39 C229.77,253.39 227.64,252.4 225.33,250.27 L224.31,251.44 C226.83,253.69 229.41,254.8 232.77,254.8 L232.77,254.8 Z" id="-STUDENT-WORKS" transform="translate(86.505000, 244.000000) rotate(-90.000000) translate(-86.505000, -244.000000) "></path>
            </g>
        </g>
    </g>
</svg>