<?xml version="1.0" encoding="UTF-8" standalone="no"?>
<svg width="22px" height="184px" viewBox="0 0 22 184" version="1.1" xmlns="http://www.w3.org/2000/svg" xmlns:xlink="http://www.w3.org/1999/xlink">
    <!-- Generator: Sketch 3.8.1 (29687) - http://www.bohemiancoding.com/sketch -->
    <title>STUDENTS</title>
    <desc>Created with Sketch.</desc>
    <defs></defs>
    <g id="Page-1" stroke="none" stroke-width="1" fill="none" fill-rule="evenodd">
        <g id="Course-report" transform="translate(-70.000000, -1600.000000)" fill="#000000">
            <g id="Students" transform="translate(57.000000, 1595.000000)">
                <path d="M-60.27,106.8 C-56.22,106.8 -53.31,104.46 -53.31,101.07 C-53.31,97.95 -55.35,96.21 -60.21,95.22 C-65.19,94.2 -66.33,92.85 -66.33,90.63 C-66.33,88.38 -64.29,86.61 -61.2,86.61 C-58.89,86.61 -56.91,87.27 -54.93,88.98 L-53.94,87.75 C-56.07,86.04 -58.08,85.2 -61.14,85.2 C-65.04,85.2 -67.89,87.6 -67.89,90.72 C-67.89,93.96 -65.85,95.67 -60.81,96.69 C-56.04,97.65 -54.87,98.94 -54.87,101.16 C-54.87,103.62 -57.03,105.39 -60.18,105.39 C-63.27,105.39 -65.4,104.4 -67.71,102.27 L-68.73,103.44 C-66.21,105.69 -63.63,106.8 -60.27,106.8 L-60.27,106.8 Z M-39.81,106.5 L-38.25,106.5 L-38.25,86.94 L-30.93,86.94 L-30.93,85.5 L-47.13,85.5 L-47.13,86.94 L-39.81,86.94 L-39.81,106.5 Z M-14.91,106.83 C-9.81,106.83 -6.3,103.62 -6.3,97.59 L-6.3,85.5 L-7.86,85.5 L-7.86,97.77 C-7.86,102.84 -10.59,105.42 -14.85,105.42 C-19.29,105.42 -21.96,102.57 -21.96,97.62 L-21.96,85.5 L-23.52,85.5 L-23.52,97.77 C-23.52,103.65 -19.95,106.83 -14.91,106.83 L-14.91,106.83 Z M2.61,106.5 L9.6,106.5 C16.2,106.5 20.76,101.91 20.76,96 C20.76,90.03 16.2,85.5 9.6,85.5 L2.61,85.5 L2.61,106.5 Z M4.17,105.06 L4.17,86.94 L9.6,86.94 C15.45,86.94 19.14,91.02 19.14,96 C19.14,101.07 15.45,105.06 9.6,105.06 L4.17,105.06 Z M29.07,106.5 L44.16,106.5 L44.16,105.06 L30.63,105.06 L30.63,96.63 L42.66,96.63 L42.66,95.19 L30.63,95.19 L30.63,86.94 L44.01,86.94 L44.01,85.5 L29.07,85.5 L29.07,106.5 Z M52.17,106.5 L53.67,106.5 L53.67,87.84 L68.46,106.5 L69.63,106.5 L69.63,85.5 L68.13,85.5 L68.13,103.77 L53.64,85.5 L52.17,85.5 L52.17,106.5 Z M84.69,106.5 L86.25,106.5 L86.25,86.94 L93.57,86.94 L93.57,85.5 L77.37,85.5 L77.37,86.94 L84.69,86.94 L84.69,106.5 Z M107.97,106.8 C112.02,106.8 114.93,104.46 114.93,101.07 C114.93,97.95 112.89,96.21 108.03,95.22 C103.05,94.2 101.91,92.85 101.91,90.63 C101.91,88.38 103.95,86.61 107.04,86.61 C109.35,86.61 111.33,87.27 113.31,88.98 L114.3,87.75 C112.17,86.04 110.16,85.2 107.1,85.2 C103.2,85.2 100.35,87.6 100.35,90.72 C100.35,93.96 102.39,95.67 107.43,96.69 C112.2,97.65 113.37,98.94 113.37,101.16 C113.37,103.62 111.21,105.39 108.06,105.39 C104.97,105.39 102.84,104.4 100.53,102.27 L99.51,103.44 C102.03,105.69 104.61,106.8 107.97,106.8 L107.97,106.8 Z" id="STUDENTS" transform="translate(24.105000, 96.015000) rotate(-90.000000) translate(-24.105000, -96.015000) "></path>
            </g>
        </g>
    </g>
</svg>