<?xml version="1.0" encoding="UTF-8" standalone="no"?>
<svg width="23px" height="198px" viewBox="0 0 23 198" version="1.1" xmlns="http://www.w3.org/2000/svg" xmlns:xlink="http://www.w3.org/1999/xlink">
    <!-- Generator: Sketch 3.8.1 (29687) - http://www.bohemiancoding.com/sketch -->
    <title>SUBSCRIBE</title>
    <desc>Created with Sketch.</desc>
    <defs></defs>
    <g id="Page-1" stroke="none" stroke-width="1" fill="none" fill-rule="evenodd">
        <g id="Index" transform="translate(-68.000000, -4558.000000)" fill="#000000">
            <g id="Footer" transform="translate(55.000000, 4554.000000)">
                <path d="M-66.77,113.3 C-62.72,113.3 -59.81,110.96 -59.81,107.57 C-59.81,104.45 -61.85,102.71 -66.71,101.72 C-71.69,100.7 -72.83,99.35 -72.83,97.13 C-72.83,94.88 -70.79,93.11 -67.7,93.11 C-65.39,93.11 -63.41,93.77 -61.43,95.48 L-60.44,94.25 C-62.57,92.54 -64.58,91.7 -67.64,91.7 C-71.54,91.7 -74.39,94.1 -74.39,97.22 C-74.39,100.46 -72.35,102.17 -67.31,103.19 C-62.54,104.15 -61.37,105.44 -61.37,107.66 C-61.37,110.12 -63.53,111.89 -66.68,111.89 C-69.77,111.89 -71.9,110.9 -74.21,108.77 L-75.23,109.94 C-72.71,112.19 -70.13,113.3 -66.77,113.3 L-66.77,113.3 Z M-43.4,113.33 C-38.3,113.33 -34.79,110.12 -34.79,104.09 L-34.79,92 L-36.35,92 L-36.35,104.27 C-36.35,109.34 -39.08,111.92 -43.34,111.92 C-47.78,111.92 -50.45,109.07 -50.45,104.12 L-50.45,92 L-52.01,92 L-52.01,104.27 C-52.01,110.15 -48.44,113.33 -43.4,113.33 L-43.4,113.33 Z M-25.88,113 L-16.76,113 C-12.23,113 -9.23,110.78 -9.23,107.27 C-9.23,104.3 -11.45,102.86 -13.97,102.2 C-12.26,101.51 -10.4,100.07 -10.4,97.22 C-10.4,94.04 -13.1,92 -17.21,92 L-25.88,92 L-25.88,113 Z M-24.32,111.56 L-24.32,103.13 L-17.21,103.13 C-13.07,103.13 -10.82,104.63 -10.82,107.21 C-10.82,109.91 -13.1,111.56 -16.7,111.56 L-24.32,111.56 Z M-24.32,101.69 L-24.32,93.44 L-17.24,93.44 C-13.88,93.44 -11.99,95 -11.99,97.31 C-11.99,100.16 -14.24,101.69 -17.39,101.69 L-24.32,101.69 Z M5.89,113.3 C9.94,113.3 12.85,110.96 12.85,107.57 C12.85,104.45 10.81,102.71 5.95,101.72 C0.97,100.7 -0.17,99.35 -0.17,97.13 C-0.17,94.88 1.87,93.11 4.96,93.11 C7.27,93.11 9.25,93.77 11.23,95.48 L12.22,94.25 C10.09,92.54 8.08,91.7 5.02,91.7 C1.12,91.7 -1.73,94.1 -1.73,97.22 C-1.73,100.46 0.31,102.17 5.35,103.19 C10.12,104.15 11.29,105.44 11.29,107.66 C11.29,110.12 9.13,111.89 5.98,111.89 C2.89,111.89 0.76,110.9 -1.55,108.77 L-2.57,109.94 C-0.05,112.19 2.53,113.3 5.89,113.3 L5.89,113.3 Z M30.49,113.36 C34.21,113.36 36.61,111.89 38.83,109.7 L37.78,108.68 C35.65,110.78 33.58,111.95 30.55,111.95 C25.54,111.95 21.67,107.81 21.67,102.5 C21.67,97.16 25.48,93.05 30.52,93.05 C33.67,93.05 35.77,94.37 37.6,96.14 L38.62,95.09 C36.46,93.11 34.3,91.64 30.55,91.64 C24.49,91.64 20.05,96.56 20.05,102.5 C20.05,108.59 24.49,113.36 30.49,113.36 L30.49,113.36 Z M46.12,113 L47.68,113 L47.68,104.3 L54.55,104.3 L61.24,113 L63.22,113 L56.29,104.03 C59.83,103.55 62.44,101.54 62.44,98.03 C62.44,96.47 61.84,95.06 60.85,94.07 C59.59,92.81 57.52,92 54.94,92 L46.12,92 L46.12,113 Z M47.68,102.89 L47.68,93.44 L54.85,93.44 C58.66,93.44 60.88,95.21 60.88,98.03 C60.88,101.12 58.27,102.89 54.76,102.89 L47.68,102.89 Z M71.02,113 L72.58,113 L72.58,92 L71.02,92 L71.02,113 Z M82.03,113 L91.15,113 C95.68,113 98.68,110.78 98.68,107.27 C98.68,104.3 96.46,102.86 93.94,102.2 C95.65,101.51 97.51,100.07 97.51,97.22 C97.51,94.04 94.81,92 90.7,92 L82.03,92 L82.03,113 Z M83.59,111.56 L83.59,103.13 L90.7,103.13 C94.84,103.13 97.09,104.63 97.09,107.21 C97.09,109.91 94.81,111.56 91.21,111.56 L83.59,111.56 Z M83.59,101.69 L83.59,93.44 L90.67,93.44 C94.03,93.44 95.92,95 95.92,97.31 C95.92,100.16 93.67,101.69 90.52,101.69 L83.59,101.69 Z M106.69,113 L121.78,113 L121.78,111.56 L108.25,111.56 L108.25,103.13 L120.28,103.13 L120.28,101.69 L108.25,101.69 L108.25,93.44 L121.63,93.44 L121.63,92 L106.69,92 L106.69,113 Z" id="SUBSCRIBE" transform="translate(24.220000, 102.500000) rotate(-90.000000) translate(-24.220000, -102.500000) "></path>
            </g>
        </g>
    </g>
</svg>