<?xml version="1.0" encoding="UTF-8" standalone="no"?>
<svg width="23px" height="186px" viewBox="0 0 23 186" version="1.1" xmlns="http://www.w3.org/2000/svg" xmlns:xlink="http://www.w3.org/1999/xlink">
    <!-- Generator: Sketch 3.8.1 (29687) - http://www.bohemiancoding.com/sketch -->
    <title>TEACHERS</title>
    <desc>Created with Sketch.</desc>
    <defs></defs>
    <g id="Page-1" stroke="none" stroke-width="1" fill="none" fill-rule="evenodd">
        <g id="About" transform="translate(-68.000000, -1256.000000)" fill="#000000">
            <g id="Teachers" transform="translate(55.000000, 1247.000000)">
                <path d="M-62.06,111.5 L-60.5,111.5 L-60.5,91.94 L-53.18,91.94 L-53.18,90.5 L-69.38,90.5 L-69.38,91.94 L-62.06,91.94 L-62.06,111.5 Z M-45.44,111.5 L-30.35,111.5 L-30.35,110.06 L-43.88,110.06 L-43.88,101.63 L-31.85,101.63 L-31.85,100.19 L-43.88,100.19 L-43.88,91.94 L-30.5,91.94 L-30.5,90.5 L-45.44,90.5 L-45.44,111.5 Z M-24.14,111.5 L-22.52,111.5 L-19.85,105.62 L-7.46,105.62 L-4.79,111.5 L-3.08,111.5 L-12.86,90.35 L-14.36,90.35 L-24.14,111.5 Z M-19.19,104.21 L-13.64,92.06 L-8.12,104.21 L-19.19,104.21 Z M12.67,111.86 C16.39,111.86 18.79,110.39 21.01,108.2 L19.96,107.18 C17.83,109.28 15.76,110.45 12.73,110.45 C7.72,110.45 3.85,106.31 3.85,101 C3.85,95.66 7.66,91.55 12.7,91.55 C15.85,91.55 17.95,92.87 19.78,94.64 L20.8,93.59 C18.64,91.61 16.48,90.14 12.73,90.14 C6.67,90.14 2.23,95.06 2.23,101 C2.23,107.09 6.67,111.86 12.67,111.86 L12.67,111.86 Z M28.3,111.5 L29.86,111.5 L29.86,101.66 L43.3,101.66 L43.3,111.5 L44.86,111.5 L44.86,90.5 L43.3,90.5 L43.3,100.22 L29.86,100.22 L29.86,90.5 L28.3,90.5 L28.3,111.5 Z M54.1,111.5 L69.19,111.5 L69.19,110.06 L55.66,110.06 L55.66,101.63 L67.69,101.63 L67.69,100.19 L55.66,100.19 L55.66,91.94 L69.04,91.94 L69.04,90.5 L54.1,90.5 L54.1,111.5 Z M77.2,111.5 L78.76,111.5 L78.76,102.8 L85.63,102.8 L92.32,111.5 L94.3,111.5 L87.37,102.53 C90.91,102.05 93.52,100.04 93.52,96.53 C93.52,94.97 92.92,93.56 91.93,92.57 C90.67,91.31 88.6,90.5 86.02,90.5 L77.2,90.5 L77.2,111.5 Z M78.76,101.39 L78.76,91.94 L85.93,91.94 C89.74,91.94 91.96,93.71 91.96,96.53 C91.96,99.62 89.35,101.39 85.84,101.39 L78.76,101.39 Z M109,111.8 C113.05,111.8 115.96,109.46 115.96,106.07 C115.96,102.95 113.92,101.21 109.06,100.22 C104.08,99.2 102.94,97.85 102.94,95.63 C102.94,93.38 104.98,91.61 108.07,91.61 C110.38,91.61 112.36,92.27 114.34,93.98 L115.33,92.75 C113.2,91.04 111.19,90.2 108.13,90.2 C104.23,90.2 101.38,92.6 101.38,95.72 C101.38,98.96 103.42,100.67 108.46,101.69 C113.23,102.65 114.4,103.94 114.4,106.16 C114.4,108.62 112.24,110.39 109.09,110.39 C106,110.39 103.87,109.4 101.56,107.27 L100.54,108.44 C103.06,110.69 105.64,111.8 109,111.8 L109,111.8 Z" id="TEACHERS" transform="translate(24.295000, 101.000000) rotate(-90.000000) translate(-24.295000, -101.000000) "></path>
            </g>
        </g>
    </g>
</svg>