<?xml version="1.0" encoding="UTF-8" standalone="no"?>
<svg width="22px" height="110px" viewBox="0 0 22 110" version="1.1" xmlns="http://www.w3.org/2000/svg" xmlns:xlink="http://www.w3.org/1999/xlink">
    <!-- Generator: Sketch 3.8.1 (29687) - http://www.bohemiancoding.com/sketch -->
    <title>VIDEO</title>
    <desc>Created with Sketch.</desc>
    <defs></defs>
    <g id="Page-1" stroke="none" stroke-width="1" fill="none" fill-rule="evenodd">
        <g id="Index" transform="translate(-69.000000, -3798.000000)" fill="#000000">
            <g id="Video" transform="translate(56.000000, 3794.000000)">
                <path d="M-21.94,68.65 L-20.56,68.65 L-11.32,47.5 L-12.97,47.5 L-21.22,66.82 L-29.44,47.5 L-31.18,47.5 L-21.94,68.65 Z M-3.67,68.5 L-2.11,68.5 L-2.11,47.5 L-3.67,47.5 L-3.67,68.5 Z M7.34,68.5 L14.33,68.5 C20.93,68.5 25.49,63.91 25.49,58 C25.49,52.03 20.93,47.5 14.33,47.5 L7.34,47.5 L7.34,68.5 Z M8.9,67.06 L8.9,48.94 L14.33,48.94 C20.18,48.94 23.87,53.02 23.87,58 C23.87,63.07 20.18,67.06 14.33,67.06 L8.9,67.06 Z M33.8,68.5 L48.89,68.5 L48.89,67.06 L35.36,67.06 L35.36,58.63 L47.39,58.63 L47.39,57.19 L35.36,57.19 L35.36,48.94 L48.74,48.94 L48.74,47.5 L33.8,47.5 L33.8,68.5 Z M66.5,68.86 C72.86,68.86 77.09,63.73 77.09,58 C77.09,52.21 72.92,47.14 66.56,47.14 C60.2,47.14 55.97,52.27 55.97,58 C55.97,63.79 60.14,68.86 66.5,68.86 L66.5,68.86 Z M66.56,67.45 C61.37,67.45 57.59,63.19 57.59,58 C57.59,52.75 61.31,48.55 66.5,48.55 C71.69,48.55 75.47,52.81 75.47,58 C75.47,63.25 71.75,67.45 66.56,67.45 L66.56,67.45 Z" id="VIDEO" transform="translate(24.050000, 58.000000) rotate(-90.000000) translate(-24.050000, -58.000000) "></path>
            </g>
        </g>
    </g>
</svg>