<?xml version="1.0" encoding="UTF-8" standalone="no"?>
<svg width="22px" height="271px" viewBox="0 0 22 271" version="1.1" xmlns="http://www.w3.org/2000/svg" xmlns:xlink="http://www.w3.org/1999/xlink">
    <!-- Generator: Sketch 3.8.1 (29687) - http://www.bohemiancoding.com/sketch -->
    <title>VIDEO COURSE</title>
    <desc>Created with Sketch.</desc>
    <defs></defs>
    <g id="Page-1" stroke="none" stroke-width="1" fill="none" fill-rule="evenodd">
        <g id="Course" transform="translate(-69.000000, -1277.000000)" fill="#000000">
            <g id="Video-course" transform="translate(56.000000, 1273.000000)">
                <path d="M-102.44,149.15 L-101.06,149.15 L-91.82,128 L-93.47,128 L-101.72,147.32 L-109.94,128 L-111.68,128 L-102.44,149.15 Z M-84.17,149 L-82.61,149 L-82.61,128 L-84.17,128 L-84.17,149 Z M-73.16,149 L-66.17,149 C-59.57,149 -55.01,144.41 -55.01,138.5 C-55.01,132.53 -59.57,128 -66.17,128 L-73.16,128 L-73.16,149 Z M-71.6,147.56 L-71.6,129.44 L-66.17,129.44 C-60.32,129.44 -56.63,133.52 -56.63,138.5 C-56.63,143.57 -60.32,147.56 -66.17,147.56 L-71.6,147.56 Z M-46.7,149 L-31.61,149 L-31.61,147.56 L-45.14,147.56 L-45.14,139.13 L-33.11,139.13 L-33.11,137.69 L-45.14,137.69 L-45.14,129.44 L-31.76,129.44 L-31.76,128 L-46.7,128 L-46.7,149 Z M-14,149.36 C-7.64,149.36 -3.41,144.23 -3.41,138.5 C-3.41,132.71 -7.58,127.64 -13.94,127.64 C-20.3,127.64 -24.53,132.77 -24.53,138.5 C-24.53,144.29 -20.36,149.36 -14,149.36 L-14,149.36 Z M-13.94,147.95 C-19.13,147.95 -22.91,143.69 -22.91,138.5 C-22.91,133.25 -19.19,129.05 -14,129.05 C-8.81,129.05 -5.03,133.31 -5.03,138.5 C-5.03,143.75 -8.75,147.95 -13.94,147.95 L-13.94,147.95 Z M26.41,149.36 C30.13,149.36 32.53,147.89 34.75,145.7 L33.7,144.68 C31.57,146.78 29.5,147.95 26.47,147.95 C21.46,147.95 17.59,143.81 17.59,138.5 C17.59,133.16 21.4,129.05 26.44,129.05 C29.59,129.05 31.69,130.37 33.52,132.14 L34.54,131.09 C32.38,129.11 30.22,127.64 26.47,127.64 C20.41,127.64 15.97,132.56 15.97,138.5 C15.97,144.59 20.41,149.36 26.41,149.36 L26.41,149.36 Z M51.04,149.36 C57.4,149.36 61.63,144.23 61.63,138.5 C61.63,132.71 57.46,127.64 51.1,127.64 C44.74,127.64 40.51,132.77 40.51,138.5 C40.51,144.29 44.68,149.36 51.04,149.36 L51.04,149.36 Z M51.1,147.95 C45.91,147.95 42.13,143.69 42.13,138.5 C42.13,133.25 45.85,129.05 51.04,129.05 C56.23,129.05 60.01,133.31 60.01,138.5 C60.01,143.75 56.29,147.95 51.1,147.95 L51.1,147.95 Z M78.22,149.33 C83.32,149.33 86.83,146.12 86.83,140.09 L86.83,128 L85.27,128 L85.27,140.27 C85.27,145.34 82.54,147.92 78.28,147.92 C73.84,147.92 71.17,145.07 71.17,140.12 L71.17,128 L69.61,128 L69.61,140.27 C69.61,146.15 73.18,149.33 78.22,149.33 L78.22,149.33 Z M95.74,149 L97.3,149 L97.3,140.3 L104.17,140.3 L110.86,149 L112.84,149 L105.91,140.03 C109.45,139.55 112.06,137.54 112.06,134.03 C112.06,132.47 111.46,131.06 110.47,130.07 C109.21,128.81 107.14,128 104.56,128 L95.74,128 L95.74,149 Z M97.3,138.89 L97.3,129.44 L104.47,129.44 C108.28,129.44 110.5,131.21 110.5,134.03 C110.5,137.12 107.89,138.89 104.38,138.89 L97.3,138.89 Z M127.54,149.3 C131.59,149.3 134.5,146.96 134.5,143.57 C134.5,140.45 132.46,138.71 127.6,137.72 C122.62,136.7 121.48,135.35 121.48,133.13 C121.48,130.88 123.52,129.11 126.61,129.11 C128.92,129.11 130.9,129.77 132.88,131.48 L133.87,130.25 C131.74,128.54 129.73,127.7 126.67,127.7 C122.77,127.7 119.92,130.1 119.92,133.22 C119.92,136.46 121.96,138.17 127,139.19 C131.77,140.15 132.94,141.44 132.94,143.66 C132.94,146.12 130.78,147.89 127.63,147.89 C124.54,147.89 122.41,146.9 120.1,144.77 L119.08,145.94 C121.6,148.19 124.18,149.3 127.54,149.3 L127.54,149.3 Z M142.63,149 L157.72,149 L157.72,147.56 L144.19,147.56 L144.19,139.13 L156.22,139.13 L156.22,137.69 L144.19,137.69 L144.19,129.44 L157.57,129.44 L157.57,128 L142.63,128 L142.63,149 Z" id="VIDEO-COURSE" transform="translate(23.965000, 138.500000) rotate(-90.000000) translate(-23.965000, -138.500000) "></path>
            </g>
        </g>
    </g>
</svg>