<?xml version="1.0" encoding="UTF-8" standalone="no"?>
<svg width="22px" height="128px" viewBox="0 0 22 128" version="1.1" xmlns="http://www.w3.org/2000/svg" xmlns:xlink="http://www.w3.org/1999/xlink">
    <!-- Generator: Sketch 3.8.1 (29687) - http://www.bohemiancoding.com/sketch -->
    <title>WORKS</title>
    <desc>Created with Sketch.</desc>
    <defs></defs>
    <g id="Page-1" stroke="none" stroke-width="1" fill="none" fill-rule="evenodd">
        <g id="Course-report" transform="translate(-69.000000, -2098.000000)" fill="#000000">
            <g id="Works" transform="translate(56.000000, 2089.000000)">
                <path d="M-33.38,82.65 L-32.12,82.65 L-25.97,64.41 L-19.82,82.65 L-18.56,82.65 L-10.94,61.5 L-12.56,61.5 L-19.16,80.19 L-25.31,61.44 L-26.51,61.44 L-32.66,80.19 L-39.26,61.5 L-41,61.5 L-33.38,82.65 Z M5.23,82.86 C11.59,82.86 15.82,77.73 15.82,72 C15.82,66.21 11.65,61.14 5.29,61.14 C-1.07,61.14 -5.3,66.27 -5.3,72 C-5.3,77.79 -1.13,82.86 5.23,82.86 L5.23,82.86 Z M5.29,81.45 C0.1,81.45 -3.68,77.19 -3.68,72 C-3.68,66.75 0.04,62.55 5.23,62.55 C10.42,62.55 14.2,66.81 14.2,72 C14.2,77.25 10.48,81.45 5.29,81.45 L5.29,81.45 Z M24.13,82.5 L25.69,82.5 L25.69,73.8 L32.56,73.8 L39.25,82.5 L41.23,82.5 L34.3,73.53 C37.84,73.05 40.45,71.04 40.45,67.53 C40.45,65.97 39.85,64.56 38.86,63.57 C37.6,62.31 35.53,61.5 32.95,61.5 L24.13,61.5 L24.13,82.5 Z M25.69,72.39 L25.69,62.94 L32.86,62.94 C36.67,62.94 38.89,64.71 38.89,67.53 C38.89,70.62 36.28,72.39 32.77,72.39 L25.69,72.39 Z M48.82,82.5 L50.38,82.5 L50.38,77.16 L55.6,71.88 L64.24,82.5 L66.28,82.5 L56.71,70.77 L65.89,61.5 L63.76,61.5 L50.38,75.3 L50.38,61.5 L48.82,61.5 L48.82,82.5 Z M80.08,82.8 C84.13,82.8 87.04,80.46 87.04,77.07 C87.04,73.95 85,72.21 80.14,71.22 C75.16,70.2 74.02,68.85 74.02,66.63 C74.02,64.38 76.06,62.61 79.15,62.61 C81.46,62.61 83.44,63.27 85.42,64.98 L86.41,63.75 C84.28,62.04 82.27,61.2 79.21,61.2 C75.31,61.2 72.46,63.6 72.46,66.72 C72.46,69.96 74.5,71.67 79.54,72.69 C84.31,73.65 85.48,74.94 85.48,77.16 C85.48,79.62 83.32,81.39 80.17,81.39 C77.08,81.39 74.95,80.4 72.64,78.27 L71.62,79.44 C74.14,81.69 76.72,82.8 80.08,82.8 L80.08,82.8 Z" id="WORKS" transform="translate(24.025000, 72.000000) rotate(-90.000000) translate(-24.025000, -72.000000) "></path>
            </g>
        </g>
    </g>
</svg>